if (_typeface_js && _typeface_js.loadFace) _typeface_js.loadFace({"glyphs":{"ユ":{"x_min":97.671875,"x_max":1264.203125,"ha":1389,"o":"m 1058 271 q 623 252 824 271 q 260 195 423 233 q 238 173 249 179 q 217 168 227 168 q 187 181 206 168 q 141 227 168 195 q 108 274 119 249 q 97 325 97 298 q 103 339 97 336 q 119 330 108 341 q 160 290 124 303 q 260 276 195 276 q 453 287 314 276 q 819 320 591 298 q 854 529 841 428 q 878 721 868 629 q 594 686 716 705 q 396 651 472 667 q 382 629 390 634 q 363 623 374 623 q 339 637 358 623 q 293 678 320 651 q 265 716 276 694 q 255 765 255 737 q 260 778 255 775 q 276 770 265 781 q 314 732 287 743 q 385 721 341 721 q 572 729 450 721 q 873 759 694 737 q 892 781 884 770 q 906 803 900 792 q 965 767 944 781 q 992 748 987 754 q 1014 727 1009 737 q 1020 710 1020 716 q 1003 694 1020 699 q 954 689 987 689 q 919 499 938 591 q 878 320 900 406 q 998 322 944 320 q 1096 336 1052 325 q 1117 349 1106 341 q 1133 363 1128 358 q 1185 339 1161 352 q 1237 309 1209 325 q 1258 287 1253 298 q 1264 265 1264 276 q 1253 249 1264 255 q 1220 249 1242 244 q 1152 260 1193 255 q 1058 271 1112 265 "},"プ":{"x_min":141.078125,"x_max":1351.015625,"ha":1389,"o":"m 330 754 q 309 743 320 748 q 282 727 298 737 q 276 713 282 716 q 260 710 271 710 q 236 721 255 710 q 189 759 217 732 q 157 797 168 775 q 141 841 146 819 q 146 854 141 851 q 162 846 151 857 q 198 816 173 824 q 255 808 222 808 q 439 819 276 808 q 900 857 602 830 q 954 873 933 862 q 982 906 976 884 q 1041 870 1014 889 q 1090 830 1068 851 q 1112 803 1106 813 q 1117 786 1117 792 q 1109 773 1117 775 q 1079 770 1101 770 q 1052 765 1063 770 q 1036 748 1041 759 q 721 255 916 444 q 249 -10 526 65 q 230 -5 233 -10 q 238 16 227 0 q 675 298 493 103 q 960 792 857 493 q 963 816 965 808 q 944 824 960 824 q 732 800 884 819 q 330 754 580 781 m 1079 976 q 1120 1071 1079 1030 q 1215 1112 1161 1112 q 1310 1071 1269 1112 q 1351 976 1351 1030 q 1310 881 1351 922 q 1215 841 1269 841 q 1120 881 1161 841 q 1079 976 1079 922 m 1112 976 q 1142 903 1112 933 q 1215 873 1171 873 q 1288 903 1258 873 q 1318 976 1318 933 q 1288 1049 1318 1020 q 1215 1079 1258 1079 q 1142 1049 1171 1079 q 1112 976 1112 1020 "},"ヵ":{"x_min":251.390625,"x_max":1058.03125,"ha":1389,"o":"m 1030 548 q 1052 529 1047 537 q 1058 515 1058 520 q 1047 501 1058 504 q 1014 499 1036 499 q 963 211 998 325 q 878 37 927 97 q 849 -2 868 16 q 803 -32 830 -21 q 781 -46 792 -43 q 754 -48 770 -48 q 735 -40 743 -48 q 721 -16 727 -32 q 713 18 721 0 q 694 54 705 37 q 661 94 678 75 q 629 135 645 113 q 626 154 623 151 q 645 146 629 157 q 732 73 699 97 q 775 48 765 48 q 805 56 792 48 q 830 86 819 65 q 903 244 873 141 q 944 493 933 347 q 941 518 949 510 q 916 526 933 526 q 803 515 862 520 q 683 504 743 510 q 545 149 651 298 q 265 -86 439 0 q 252 -81 255 -86 q 255 -65 249 -75 q 496 173 406 32 q 618 493 585 314 q 488 472 537 482 q 423 450 439 461 q 412 442 417 444 q 396 439 406 439 q 379 444 390 439 q 352 466 368 450 q 317 512 330 488 q 298 564 303 537 q 303 575 298 575 q 320 564 309 575 q 360 526 336 537 q 417 515 385 515 q 491 518 439 515 q 623 531 542 520 q 634 618 629 575 q 645 710 640 661 q 648 735 651 721 q 640 765 645 748 q 621 775 634 770 q 591 786 607 781 q 583 794 580 792 q 596 803 585 797 q 672 794 640 803 q 727 765 705 786 q 748 743 743 754 q 754 727 754 732 q 746 713 754 716 q 721 710 737 710 q 708 623 716 667 q 689 542 699 580 q 813 553 754 548 q 933 564 873 558 q 949 580 944 569 q 960 602 954 591 q 1001 572 982 585 q 1030 548 1020 558 "},"ラ":{"x_min":222.453125,"x_max":1155.6875,"ha":1389,"o":"m 1014 683 q 564 637 721 656 q 390 607 406 618 q 368 591 379 596 q 347 585 358 585 q 317 596 336 585 q 271 634 298 607 q 236 678 249 656 q 222 721 222 699 q 227 735 222 732 q 244 727 233 737 q 284 689 260 699 q 341 678 309 678 q 575 689 412 678 q 992 727 737 699 q 1022 740 1009 732 q 1047 765 1036 748 q 1096 729 1074 743 q 1128 705 1117 716 q 1150 683 1144 694 q 1155 667 1155 672 q 1142 645 1155 651 q 1096 645 1128 640 q 794 206 976 385 q 368 -75 613 27 q 349 -70 352 -75 q 352 -54 347 -65 q 746 249 580 65 q 1014 683 911 434 m 889 992 q 922 1011 906 1003 q 954 1030 938 1020 q 1020 1006 992 1020 q 1063 976 1047 992 q 1079 957 1074 965 q 1085 944 1085 949 q 1074 935 1085 938 q 1041 938 1063 933 q 830 941 965 949 q 493 906 694 933 q 466 884 477 889 q 444 878 455 878 q 415 887 434 878 q 374 916 396 895 q 333 963 347 938 q 320 1014 320 987 q 325 1028 320 1025 q 341 1020 330 1030 q 379 982 347 992 q 466 971 412 971 q 642 976 537 971 q 889 992 748 982 "},"ム":{"x_min":168.203125,"x_max":1220.796875,"ha":1389,"o":"m 667 851 q 667 900 672 878 q 651 938 661 922 q 629 960 645 949 q 591 982 613 971 q 588 990 585 987 q 602 998 591 992 q 667 979 634 992 q 727 944 699 965 q 759 914 743 933 q 792 873 775 895 q 800 849 803 857 q 781 841 797 841 q 756 822 770 835 q 732 781 743 808 q 604 482 672 623 q 455 217 537 341 q 773 263 623 238 q 1052 320 922 287 q 952 455 1009 390 q 819 585 895 520 q 816 599 813 596 q 835 602 819 602 q 1125 347 1030 466 q 1220 151 1220 227 q 1218 111 1220 124 q 1209 92 1215 97 q 1193 78 1204 81 q 1171 81 1182 75 q 1150 97 1161 81 q 1133 141 1139 113 q 1112 214 1128 179 q 1074 287 1096 249 q 705 192 895 238 q 314 108 515 146 q 290 75 303 81 q 255 86 276 70 q 222 122 238 103 q 189 162 206 141 q 173 206 179 184 q 168 249 168 227 q 179 260 173 260 q 189 249 184 260 q 219 208 200 222 q 271 200 238 195 q 355 203 320 200 q 412 211 390 206 q 534 474 472 314 q 667 851 596 634 "},"パ":{"x_min":67.8125,"x_max":1296.765625,"ha":1389,"o":"m 1199 287 q 1055 512 1161 390 q 797 727 949 634 q 786 743 781 737 q 808 743 792 748 q 1155 515 1025 651 q 1285 287 1285 379 q 1277 255 1285 265 q 1253 244 1269 244 q 1220 255 1237 244 q 1199 287 1204 265 m 553 737 q 607 683 591 705 q 623 651 623 661 q 618 637 623 640 q 596 634 613 634 q 575 626 585 634 q 553 607 564 618 q 341 355 455 466 q 97 162 227 244 q 70 157 75 151 q 70 179 65 162 q 309 404 206 282 q 488 667 412 526 q 491 718 499 699 q 450 748 482 737 q 442 759 439 754 q 455 770 444 765 q 512 762 488 770 q 553 737 537 754 m 1025 922 q 1066 1017 1025 976 q 1161 1058 1106 1058 q 1256 1017 1215 1058 q 1296 922 1296 976 q 1256 827 1296 868 q 1161 786 1215 786 q 1066 827 1106 786 q 1025 922 1025 868 m 1058 922 q 1087 849 1058 878 q 1161 819 1117 819 q 1234 849 1204 819 q 1264 922 1264 878 q 1234 995 1264 965 q 1161 1025 1204 1025 q 1087 995 1117 1025 q 1058 922 1058 965 "},"ペ":{"x_min":59.6875,"x_max":1329.3125,"ha":1389,"o":"m 211 461 q 255 496 233 477 q 298 542 276 515 q 409 651 368 607 q 466 710 450 694 q 504 737 488 727 q 537 748 520 748 q 575 740 553 748 q 623 716 596 732 q 941 518 824 591 q 1096 428 1058 444 q 1182 382 1133 406 q 1291 330 1231 358 q 1321 303 1313 320 q 1329 271 1329 287 q 1323 246 1329 255 q 1302 238 1318 238 q 1272 244 1291 238 q 1231 260 1253 249 q 1155 306 1209 271 q 1009 401 1101 341 q 832 520 927 455 q 629 661 737 585 q 580 689 602 678 q 537 699 558 699 q 507 683 526 699 q 461 640 488 667 q 366 529 406 575 q 293 455 325 482 q 252 409 265 428 q 238 379 238 390 q 233 363 238 368 q 211 358 227 358 q 111 398 157 358 q 59 482 65 439 q 67 496 65 493 q 75 493 70 499 q 122 455 103 466 q 157 444 141 444 q 192 447 179 444 q 211 461 206 450 m 976 900 q 1017 995 976 954 q 1112 1036 1058 1036 q 1207 995 1166 1036 q 1247 900 1247 954 q 1207 805 1247 846 q 1112 765 1166 765 q 1017 805 1058 765 q 976 900 976 846 m 1009 900 q 1039 827 1009 857 q 1112 797 1068 797 q 1185 827 1155 797 q 1215 900 1215 857 q 1185 973 1215 944 q 1112 1003 1155 1003 q 1039 973 1068 1003 q 1009 900 1009 944 "},"ッ":{"x_min":294.796875,"x_max":1161.125,"ha":1389,"o":"m 439 390 q 420 439 428 417 q 401 472 412 461 q 360 518 385 493 q 298 569 336 542 q 295 577 293 575 q 303 585 298 580 q 349 569 325 580 q 401 542 374 558 q 442 512 423 526 q 472 488 461 499 q 504 444 493 466 q 510 406 515 423 q 501 374 510 385 q 477 363 493 363 q 455 368 466 363 q 439 390 444 374 m 716 466 q 694 472 705 466 q 678 493 683 477 q 648 558 661 531 q 618 602 634 585 q 585 629 607 613 q 531 667 564 645 q 526 678 526 672 q 537 683 526 683 q 602 664 569 678 q 667 629 634 651 q 729 569 710 602 q 748 504 748 537 q 740 474 748 482 q 716 466 732 466 m 1085 645 q 1142 599 1123 618 q 1161 564 1161 580 q 1155 556 1161 558 q 1133 553 1150 553 q 1112 542 1123 553 q 1090 515 1101 531 q 803 127 982 282 q 368 -108 623 -27 q 349 -103 352 -108 q 358 -81 347 -97 q 789 192 618 21 q 1036 596 960 363 q 1030 626 1041 613 q 992 656 1020 640 q 984 664 982 661 q 1003 672 987 667 q 1049 661 1030 667 q 1085 645 1068 656 "},"キ":{"x_min":179.046875,"x_max":1269.640625,"ha":1389,"o":"m 765 444 q 830 244 803 336 q 878 81 857 151 q 900 10 895 37 q 895 -27 906 -16 q 887 -35 895 -32 q 862 -37 878 -37 q 830 -16 846 -37 q 803 27 813 5 q 751 244 775 141 q 705 434 727 347 q 463 347 553 379 q 347 303 374 314 q 330 287 341 293 q 309 282 320 282 q 241 320 293 282 q 179 423 189 358 q 184 439 179 439 q 200 428 189 439 q 241 390 217 401 q 303 379 265 379 q 439 401 341 379 q 694 472 537 423 q 661 594 678 531 q 629 721 645 656 q 420 661 493 683 q 341 629 347 640 q 328 615 336 618 q 309 613 320 613 q 236 648 282 613 q 179 732 189 683 q 187 751 179 748 q 206 737 195 754 q 252 708 227 716 q 303 699 276 699 q 425 713 347 699 q 618 759 504 727 q 572 903 591 851 q 542 971 553 954 q 507 995 531 987 q 450 1009 482 1003 q 439 1014 439 1009 q 450 1030 439 1020 q 485 1039 466 1036 q 520 1041 504 1041 q 637 1011 607 1030 q 667 982 667 992 q 661 965 667 971 q 640 954 656 960 q 653 870 645 916 q 672 775 661 824 q 832 811 775 792 q 900 851 889 830 q 919 862 906 862 q 954 857 933 862 q 1028 832 998 846 q 1058 797 1058 819 q 1049 789 1058 792 q 1025 786 1041 786 q 897 773 982 786 q 683 737 813 759 q 721 610 705 672 q 754 488 737 548 q 895 523 819 504 q 1052 569 971 542 q 1082 580 1068 575 q 1101 596 1096 585 q 1128 607 1112 607 q 1161 602 1144 607 q 1237 569 1204 585 q 1269 531 1269 553 q 1261 518 1269 520 q 1237 515 1253 515 q 1058 507 1177 526 q 765 444 938 488 "},"レ":{"x_min":309.265625,"x_max":1299.484375,"ha":1389,"o":"m 412 211 l 412 803 q 409 849 412 830 q 396 878 406 868 q 366 897 385 889 q 320 911 347 906 q 309 922 309 916 q 320 933 309 927 q 393 927 358 933 q 461 911 428 922 q 510 884 493 895 q 526 862 526 873 q 520 849 526 857 q 499 830 515 841 q 482 811 488 819 q 477 792 477 803 l 477 195 q 878 404 678 276 q 1280 705 1079 531 q 1296 702 1291 705 q 1296 689 1302 699 q 979 401 1171 542 q 520 119 786 260 q 507 81 515 92 q 488 70 499 70 q 472 78 482 70 q 444 108 461 86 q 406 151 423 135 q 385 179 390 168 q 401 192 396 184 q 412 211 406 200 "},"イ":{"x_min":89.125,"x_max":1085.15625,"ha":1389,"o":"m 765 -27 q 759 -65 765 -54 q 743 -75 754 -75 q 699 -43 732 -75 q 678 32 667 -10 q 691 84 689 59 q 694 130 694 108 l 694 607 q 390 398 537 482 q 113 265 244 314 q 89 271 92 265 q 103 293 86 276 q 591 607 385 444 q 933 944 797 770 q 949 968 944 954 q 949 998 954 982 q 935 1014 949 1003 q 900 1036 922 1025 q 887 1044 884 1041 q 911 1052 889 1047 q 987 1030 954 1047 q 1041 987 1020 1014 q 1074 952 1063 965 q 1085 927 1085 938 q 1077 911 1085 916 q 1052 911 1068 906 q 1028 906 1041 911 q 998 889 1014 900 q 887 773 949 830 q 748 656 824 716 q 813 621 808 634 q 765 596 819 607 l 765 -27 "},"ヽ":{"x_min":381.96875,"x_max":976.640625,"ha":1389,"o":"m 396 792 q 827 515 678 683 q 976 211 976 347 q 963 170 976 184 q 933 157 949 157 q 914 162 922 157 q 900 179 906 168 q 751 436 824 325 q 602 618 678 548 q 499 705 553 667 q 390 770 444 743 q 382 789 379 781 q 396 792 385 797 "},"ス":{"x_min":139.703125,"x_max":1177.390625,"ha":1389,"o":"m 949 911 q 992 881 971 895 q 1030 851 1014 868 q 1047 832 1041 841 q 1052 813 1052 824 q 1041 800 1052 803 q 1003 797 1030 797 q 900 640 954 716 q 786 499 846 564 q 954 423 878 466 q 1085 325 1030 379 q 1155 241 1133 276 q 1177 179 1177 206 q 1166 141 1177 151 q 1133 130 1155 130 q 1109 143 1123 130 q 1079 184 1096 157 q 954 339 1030 265 q 770 482 878 412 q 485 244 634 347 q 168 75 336 141 q 141 75 146 70 q 151 97 135 81 q 604 412 417 233 q 906 813 792 591 q 906 830 911 824 q 884 835 900 835 q 575 786 683 808 q 455 748 466 765 q 444 735 450 737 q 428 732 439 732 q 412 740 423 732 q 379 765 401 748 q 322 824 341 797 q 309 873 303 851 q 314 887 309 884 q 330 878 320 889 q 366 840 347 851 q 412 830 385 830 q 599 840 477 830 q 900 873 721 851 q 927 892 916 884 q 949 911 938 900 "},"デ":{"x_min":81.390625,"x_max":1340.171875,"ha":1389,"o":"m 385 835 q 371 824 374 830 q 358 819 368 819 q 336 827 352 819 q 298 857 320 835 q 260 903 276 878 q 238 954 244 927 q 241 971 233 965 q 260 960 249 976 q 309 916 282 927 q 368 906 336 906 q 594 922 488 911 q 819 949 699 933 q 857 960 841 954 q 889 982 873 965 q 933 968 911 976 q 976 949 954 960 q 1017 922 1003 933 q 1030 906 1030 911 q 1014 892 1030 895 q 965 895 998 889 q 822 900 922 906 q 461 862 721 895 q 415 849 434 857 q 385 835 396 841 m 330 580 q 274 569 298 575 q 238 558 249 564 q 225 548 227 553 q 211 542 222 542 q 195 545 206 542 q 173 558 184 548 q 108 621 130 591 q 81 678 86 651 q 92 691 86 689 q 97 689 97 694 q 138 648 108 661 q 211 634 168 634 q 444 645 255 634 q 971 683 634 656 q 1036 694 1009 689 q 1079 716 1063 699 q 1123 694 1101 705 q 1161 678 1144 683 q 1201 653 1188 667 q 1215 629 1215 640 q 1196 610 1215 613 q 1133 618 1177 607 q 949 626 1058 623 q 694 629 841 629 q 784 566 754 591 q 813 531 813 542 q 811 518 813 520 q 797 515 808 515 q 773 510 781 515 q 759 493 765 504 q 569 162 689 303 q 287 -70 450 21 q 265 -73 271 -81 q 265 -54 260 -65 q 539 217 434 70 q 683 531 645 363 q 689 561 689 548 q 683 585 689 575 q 670 607 678 596 q 645 623 661 618 q 469 602 548 613 q 330 580 390 591 m 1313 987 q 1294 990 1302 987 q 1280 998 1285 992 q 1258 1022 1269 1009 q 1237 1052 1247 1036 q 1193 1093 1220 1074 q 1133 1133 1166 1112 q 1128 1144 1128 1139 q 1139 1150 1128 1150 q 1302 1087 1264 1123 q 1340 1014 1340 1052 q 1334 992 1340 998 q 1313 987 1329 987 m 1220 895 q 1212 865 1220 873 q 1188 857 1204 857 q 1161 876 1177 857 q 1117 933 1144 895 q 1079 973 1106 949 q 1009 1036 1052 998 q 1006 1044 1003 1041 q 1014 1052 1009 1047 q 1150 992 1079 1036 q 1220 895 1220 949 "},"ズ":{"x_min":139.703125,"x_max":1361.875,"ha":1389,"o":"m 949 911 q 992 881 971 895 q 1030 851 1014 868 q 1047 832 1041 841 q 1052 813 1052 824 q 1041 800 1052 803 q 1003 797 1030 797 q 900 640 954 716 q 786 499 846 564 q 954 423 878 466 q 1085 325 1030 379 q 1155 241 1133 276 q 1177 179 1177 206 q 1166 141 1177 151 q 1133 130 1155 130 q 1109 143 1123 130 q 1079 184 1096 157 q 954 339 1030 265 q 770 482 878 412 q 485 244 634 347 q 168 75 336 141 q 141 75 146 70 q 151 97 135 81 q 604 412 417 233 q 906 813 792 591 q 906 830 911 824 q 884 835 900 835 q 575 786 683 808 q 455 748 466 765 q 444 735 450 737 q 428 732 439 732 q 412 740 423 732 q 379 765 401 748 q 322 824 341 797 q 309 873 303 851 q 314 887 309 884 q 330 878 320 889 q 366 840 347 851 q 412 830 385 830 q 599 840 477 830 q 900 873 721 851 q 927 892 916 884 q 949 911 938 900 m 1334 954 q 1315 957 1323 954 q 1302 965 1307 960 q 1280 990 1291 976 q 1258 1020 1269 1003 q 1215 1060 1242 1041 q 1155 1101 1188 1079 q 1150 1112 1150 1106 q 1161 1117 1150 1117 q 1318 1058 1275 1096 q 1361 982 1361 1020 q 1356 960 1361 965 q 1334 954 1351 954 m 1220 878 q 1212 849 1220 857 q 1188 841 1204 841 q 1161 859 1177 841 q 1117 916 1144 878 q 1079 957 1106 933 q 1009 1020 1052 982 q 1006 1028 1003 1025 q 1014 1036 1009 1030 q 1150 976 1079 1020 q 1220 878 1220 933 "},"オ":{"x_min":115.75,"x_max":1346.375,"ha":1389,"o":"m 841 1036 q 887 1014 873 1025 q 900 998 900 1003 q 895 976 900 982 q 878 971 889 971 q 868 952 873 965 q 862 916 862 938 l 862 748 q 1082 754 1003 748 q 1171 770 1161 759 q 1237 778 1199 786 q 1318 732 1275 770 q 1345 694 1351 705 q 1296 689 1340 683 q 1101 705 1209 699 q 862 710 992 710 l 862 238 q 870 138 868 179 q 868 81 873 97 q 835 2 857 37 q 770 -32 813 -32 q 754 -21 759 -32 q 748 10 748 -10 q 740 35 748 21 q 710 65 732 48 q 632 122 672 92 q 542 184 591 151 q 534 198 531 195 q 553 200 537 200 q 648 149 602 173 q 737 103 694 124 q 775 89 759 86 q 797 108 792 92 q 803 151 803 130 q 803 200 803 173 l 803 651 q 501 301 667 450 q 135 59 336 151 q 116 59 119 54 q 119 81 113 65 q 461 341 303 184 q 748 705 618 499 q 455 667 558 683 q 336 640 352 651 q 325 626 330 629 q 309 623 320 623 q 282 637 303 623 q 222 678 260 651 q 192 716 200 694 q 184 765 184 737 q 198 781 189 781 q 217 765 206 781 q 246 729 227 743 q 287 716 265 716 q 461 718 330 710 q 803 743 591 727 l 803 895 q 797 957 803 933 q 781 992 792 982 q 754 1014 770 1003 q 710 1030 737 1025 q 699 1041 699 1036 q 705 1052 699 1047 q 767 1055 732 1058 q 841 1036 803 1052 "},"・":{"x_min":569.703125,"x_max":819.296875,"ha":1389,"o":"m 569 499 q 604 588 569 553 q 694 623 640 623 q 784 588 748 623 q 819 499 819 553 q 784 409 819 444 q 694 374 748 374 q 604 409 640 374 q 569 499 569 444 "},"シ":{"x_min":173.625,"x_max":1331.484375,"ha":1389,"o":"m 1302 775 q 1326 778 1318 781 q 1329 759 1334 775 q 1014 425 1199 591 q 596 103 830 260 q 534 56 558 75 q 504 27 510 37 q 493 10 499 16 q 477 5 488 5 q 458 10 472 5 q 417 32 444 16 q 385 54 401 43 q 352 81 368 65 q 322 132 330 103 q 314 200 314 162 q 320 214 314 211 q 336 206 325 217 q 371 143 352 162 q 417 124 390 124 q 477 135 444 124 q 548 168 510 146 q 963 455 775 303 q 1302 775 1150 607 m 537 813 q 461 884 510 857 q 347 927 412 911 q 339 938 336 933 q 352 949 341 944 q 499 930 439 949 q 596 873 558 911 q 626 835 618 851 q 634 803 634 819 q 623 773 634 781 q 591 765 613 765 q 567 775 580 765 q 537 813 553 786 m 472 520 q 469 504 472 510 q 461 493 466 499 q 450 485 455 488 q 434 482 444 482 q 409 493 423 482 q 374 531 396 504 q 295 599 341 569 q 189 645 249 629 q 173 656 173 651 q 189 667 173 661 q 333 645 271 667 q 439 585 396 623 q 463 553 455 569 q 472 520 472 537 "},"ヱ":{"x_min":119.375,"x_max":1313.046875,"ha":1389,"o":"m 732 417 l 732 265 l 889 265 q 1020 268 954 265 q 1150 276 1085 271 q 1177 287 1166 282 q 1193 293 1188 293 q 1223 282 1204 293 q 1269 249 1242 271 q 1302 217 1291 233 q 1313 189 1313 200 q 1299 176 1313 179 q 1253 184 1285 173 q 1163 200 1215 195 q 1047 211 1112 206 q 694 211 862 217 q 374 184 526 206 q 314 173 341 179 q 265 162 287 168 q 252 149 260 151 q 233 146 244 146 q 208 154 222 146 q 173 184 195 162 q 132 236 146 211 q 119 282 119 260 q 127 295 124 293 q 135 293 130 298 q 173 255 146 265 q 238 244 200 244 q 455 249 347 244 q 667 265 564 255 l 667 466 q 664 510 667 488 q 651 553 661 531 q 623 575 640 564 q 580 591 607 585 q 569 602 569 596 q 580 613 569 607 q 661 602 623 613 q 732 575 699 591 q 824 648 781 607 q 911 737 868 689 q 914 754 922 748 q 873 759 906 759 q 550 732 667 743 q 406 710 434 721 q 387 694 396 699 q 374 689 379 689 q 352 699 368 689 q 309 737 336 710 q 274 784 287 759 q 255 835 260 808 q 263 843 260 841 q 271 841 265 846 q 311 800 282 813 q 385 786 341 786 q 756 794 623 792 q 916 797 889 797 q 938 819 927 808 q 960 841 949 830 q 1011 811 987 824 q 1058 781 1036 797 q 1082 759 1074 770 q 1085 743 1090 748 q 1074 729 1085 732 q 1047 727 1063 727 q 1022 721 1036 727 q 992 705 1009 716 q 873 623 933 661 q 754 553 813 585 q 762 529 765 537 q 743 515 759 520 q 735 480 737 504 q 732 417 732 455 "},"ピ":{"x_min":271.296875,"x_max":1302.1875,"ha":1389,"o":"m 439 569 q 686 634 575 596 q 878 716 797 672 q 887 740 895 721 q 846 775 878 759 q 843 784 841 781 q 857 792 846 786 q 922 773 889 786 q 982 737 954 759 q 1022 699 1009 716 q 1036 678 1036 683 q 1028 664 1036 667 q 998 667 1020 661 q 954 656 976 661 q 911 645 933 651 q 672 575 792 602 q 439 531 553 548 l 439 217 q 461 151 439 173 q 526 130 482 130 l 754 130 q 838 138 797 130 q 916 157 878 146 q 952 173 938 162 q 971 179 965 184 q 1009 160 992 168 q 1030 146 1025 151 q 1047 124 1041 135 q 1052 108 1052 113 q 1047 100 1052 103 q 1025 92 1041 97 q 973 84 1003 86 q 911 81 944 81 q 846 75 884 81 q 759 70 808 70 l 515 70 q 409 103 444 70 q 374 206 374 135 l 374 846 q 352 889 374 873 q 287 916 330 906 q 271 927 271 922 q 287 944 271 933 q 333 944 309 944 q 385 933 358 944 q 439 911 417 922 q 477 884 461 900 q 491 868 488 873 q 493 857 493 862 q 488 846 493 851 q 472 841 482 841 q 453 819 461 841 q 439 765 444 797 l 439 569 m 1030 922 q 1071 1017 1030 976 q 1166 1058 1112 1058 q 1261 1017 1220 1058 q 1302 922 1302 976 q 1261 827 1302 868 q 1166 786 1220 786 q 1071 827 1112 786 q 1030 922 1030 868 m 1063 922 q 1093 849 1063 878 q 1166 819 1123 819 q 1239 849 1209 819 q 1269 922 1269 878 q 1239 995 1269 965 q 1166 1025 1209 1025 q 1093 995 1123 1025 q 1063 922 1063 965 "},"セ":{"x_min":86.8125,"x_max":1231.65625,"ha":1389,"o":"m 1052 699 q 1063 721 1068 716 q 1030 727 1058 727 q 808 694 922 710 q 575 661 694 678 q 566 355 569 472 q 564 189 564 238 q 588 127 569 146 q 645 108 607 108 l 873 108 q 933 113 906 108 q 987 124 960 119 q 1022 135 1009 130 q 1047 151 1036 141 q 1077 135 1063 146 q 1106 113 1090 124 q 1123 94 1117 103 q 1128 75 1128 86 q 1120 65 1128 70 q 1090 59 1112 59 q 1041 51 1074 54 q 965 48 1009 48 l 629 48 q 537 81 569 48 q 504 179 504 113 l 504 651 q 320 604 385 623 q 244 575 255 585 q 236 561 244 564 q 217 558 227 558 q 184 569 206 558 q 130 607 162 580 q 97 645 108 623 q 86 694 86 667 q 94 713 92 710 q 103 710 97 716 q 138 670 119 683 q 184 656 157 656 q 322 661 244 651 q 504 694 401 672 l 504 895 q 499 919 504 906 q 482 949 493 933 q 458 968 472 960 q 423 982 444 976 q 412 995 412 987 q 428 1009 412 1003 q 504 1003 466 1014 q 585 965 542 992 q 618 935 607 949 q 629 911 629 922 q 626 900 629 906 q 613 895 623 895 q 585 868 596 884 q 575 830 575 851 l 575 705 q 805 737 689 721 q 1041 770 922 754 q 1074 784 1058 775 q 1106 808 1090 792 q 1158 778 1133 792 q 1199 754 1182 765 q 1223 735 1215 743 q 1231 721 1231 727 q 1223 699 1231 705 q 1193 699 1215 694 q 1163 694 1177 699 q 1139 678 1150 689 q 922 504 1030 580 q 705 374 813 428 q 686 379 689 374 q 689 396 683 385 q 895 553 803 477 q 1052 699 987 629 "},"ー":{"x_min":103.09375,"x_max":1288.078125,"ha":1389,"o":"m 689 499 q 531 491 613 493 q 363 482 450 488 q 287 474 314 477 q 255 466 260 472 q 236 450 244 455 q 217 444 227 444 q 206 453 217 444 q 179 477 195 461 q 149 512 162 493 q 124 548 135 531 q 108 599 113 575 q 103 651 103 623 q 113 661 108 661 q 124 656 119 661 q 154 594 141 618 q 184 564 168 569 q 222 550 200 553 q 271 548 244 548 q 463 548 352 548 q 710 553 575 548 q 938 556 851 553 q 1058 564 1025 558 q 1106 569 1090 564 q 1128 580 1123 575 q 1147 591 1139 585 q 1161 596 1155 596 q 1209 585 1188 596 q 1247 558 1231 575 q 1277 526 1269 537 q 1285 515 1285 515 q 1283 491 1291 499 q 1253 488 1275 482 q 1185 496 1220 493 q 1117 499 1150 499 l 689 499 "},"ヰ":{"x_min":86.8125,"x_max":1296.765625,"ha":1389,"o":"m 499 683 q 518 664 520 672 q 488 645 515 656 l 488 401 q 626 406 558 401 q 759 417 694 412 l 759 710 q 634 702 699 705 q 499 694 569 699 l 499 683 m 830 -48 q 827 -70 830 -65 q 813 -75 824 -75 q 789 -70 803 -75 q 765 -48 775 -65 q 748 -27 754 -37 q 743 -5 743 -16 q 759 154 754 59 q 759 374 765 249 q 398 336 526 352 q 244 309 271 320 q 230 292 238 298 q 211 287 222 287 q 189 298 206 287 q 151 330 173 309 q 108 382 124 358 q 86 428 92 406 q 92 442 86 439 q 108 434 97 444 q 157 396 135 406 q 200 385 179 385 q 279 387 222 385 q 428 396 336 390 l 428 683 q 404 670 417 672 q 379 667 390 667 q 360 675 374 667 q 325 699 347 683 q 290 737 303 716 q 271 786 276 759 q 279 800 276 797 q 287 797 282 803 q 328 756 298 770 q 401 743 358 743 q 561 746 472 743 q 759 754 651 748 l 759 922 q 751 971 759 949 q 732 1009 743 992 q 705 1028 721 1020 q 667 1036 689 1036 q 659 1047 661 1041 q 661 1058 656 1052 q 718 1060 683 1063 q 797 1041 754 1058 q 843 1011 830 1025 q 857 987 857 998 q 849 973 857 976 q 819 971 841 971 l 819 759 q 960 765 911 759 q 1014 781 1009 770 q 1028 797 1020 792 q 1047 803 1036 803 q 1082 792 1058 803 q 1139 759 1106 781 q 1161 740 1155 748 q 1166 721 1166 732 q 1158 708 1166 710 q 1128 710 1150 705 q 1028 716 1106 716 q 819 716 949 716 l 819 423 q 1022 436 949 428 q 1117 455 1096 444 q 1133 472 1123 466 q 1155 477 1144 477 q 1177 469 1161 477 q 1220 444 1193 461 q 1277 406 1258 423 q 1296 379 1296 390 q 1288 366 1296 368 q 1264 368 1280 363 q 1082 387 1193 385 q 819 379 971 390 l 819 119 q 827 24 824 65 q 830 -48 830 -16 "},"ヶ":{"x_min":214.3125,"x_max":1117.71875,"ha":1389,"o":"m 531 434 q 510 450 520 439 q 488 472 499 461 q 358 306 423 374 q 233 200 293 238 q 217 200 222 195 q 217 217 211 206 q 409 444 336 330 q 510 672 482 558 q 512 699 515 689 q 504 721 510 710 q 485 737 499 732 q 450 748 472 743 q 439 759 439 754 q 450 770 439 765 q 520 759 488 770 q 580 732 553 748 q 610 705 602 716 q 618 689 618 694 q 613 675 618 678 q 591 672 607 672 q 545 566 569 613 q 499 488 520 520 q 675 501 558 488 q 965 542 792 515 q 995 556 982 548 q 1020 569 1009 564 q 1063 545 1041 558 q 1101 520 1085 531 q 1115 507 1112 515 q 1117 488 1117 499 q 1109 474 1117 477 q 1079 477 1101 472 q 968 488 1041 488 q 781 477 895 488 q 846 431 824 450 q 868 406 868 412 q 857 393 868 396 q 824 390 846 390 q 678 94 775 227 q 428 -135 580 -37 q 412 -135 417 -141 q 412 -119 406 -130 q 675 192 591 43 q 748 472 759 341 q 640 450 694 461 q 531 434 585 439 "},"ノ":{"x_min":229.6875,"x_max":1052.609375,"ha":1389,"o":"m 982 765 q 664 271 846 472 q 249 -43 482 70 q 230 -37 233 -43 q 233 -21 227 -32 q 642 344 472 124 q 916 851 813 564 q 908 897 927 873 q 857 933 889 922 q 841 946 841 938 q 857 960 841 954 q 922 946 889 960 q 982 906 954 933 q 1036 846 1020 868 q 1052 813 1052 824 q 1044 800 1052 803 q 1020 797 1036 797 q 1001 789 1009 797 q 982 765 992 781 "},"サ":{"x_min":108.515625,"x_max":1285.90625,"ha":1389,"o":"m 472 634 q 325 607 379 618 q 255 585 271 596 q 244 572 249 575 q 227 569 238 569 q 160 613 200 569 q 108 710 119 656 q 122 727 113 727 q 135 716 130 727 q 170 675 146 689 q 238 661 195 661 q 363 664 303 661 q 472 672 423 667 l 472 830 q 466 892 472 868 q 450 927 461 916 q 425 944 439 938 q 390 949 412 949 q 385 963 385 954 q 396 971 385 971 q 515 957 455 982 q 575 906 575 933 q 569 889 575 895 q 553 884 564 884 q 542 868 548 878 q 537 835 537 857 l 537 678 q 697 689 623 683 q 835 699 770 694 l 835 868 q 832 957 835 922 q 824 1009 830 992 q 803 1030 819 1020 q 759 1052 786 1041 q 746 1068 743 1058 q 765 1079 748 1079 q 876 1055 813 1079 q 938 1003 938 1030 q 935 987 938 992 q 922 982 933 982 q 911 946 916 971 q 906 884 906 922 l 906 705 q 1028 708 982 705 q 1090 710 1074 710 q 1128 716 1112 710 q 1155 737 1144 721 q 1245 697 1204 721 q 1285 645 1285 672 q 1261 629 1285 629 q 1188 645 1237 629 q 1085 656 1155 651 q 906 661 1014 661 q 803 227 911 412 q 466 -75 694 43 q 447 -70 450 -75 q 450 -54 444 -65 q 754 260 656 81 q 835 656 851 439 q 678 645 754 651 q 537 634 602 640 q 539 458 537 537 q 542 325 542 379 q 537 295 542 303 q 515 287 531 287 q 499 292 510 287 q 477 309 488 298 q 461 339 466 320 q 461 385 455 358 q 469 474 466 412 q 472 634 472 537 "},"ェ":{"x_min":200.75,"x_max":1182.828125,"ha":1389,"o":"m 667 412 q 656 488 667 466 q 602 510 645 510 q 466 485 515 493 q 412 477 417 477 q 401 463 406 466 q 385 461 396 461 q 336 493 374 461 q 293 564 298 526 q 301 575 298 575 q 309 569 303 575 q 358 537 325 548 q 439 531 390 526 q 634 548 520 537 q 895 575 748 558 q 933 583 916 575 q 960 607 949 591 q 1009 583 987 596 q 1047 553 1030 569 q 1060 534 1058 542 q 1063 520 1063 526 q 1052 515 1063 515 q 1014 520 1041 515 q 873 526 949 526 q 705 520 797 526 q 762 488 754 504 q 732 455 770 472 q 729 311 732 379 q 721 179 727 244 q 876 181 803 179 q 1014 189 949 184 q 1060 189 1041 184 q 1090 211 1079 195 q 1131 187 1112 200 q 1166 157 1150 173 q 1180 138 1177 146 q 1182 124 1182 130 q 1174 116 1182 119 q 1150 119 1166 113 q 865 141 1047 146 q 417 97 683 135 q 371 86 390 92 q 341 75 352 81 q 328 67 336 70 q 309 65 320 65 q 284 73 298 65 q 249 97 271 81 q 217 132 227 113 q 200 168 206 151 q 206 181 200 179 q 217 179 211 184 q 257 149 233 157 q 320 141 282 141 q 472 149 385 141 q 667 173 558 157 l 667 412 "},"ギ":{"x_min":179.046875,"x_max":1302.1875,"ha":1389,"o":"m 765 444 q 830 244 803 336 q 878 81 857 151 q 900 10 895 37 q 895 -27 906 -16 q 887 -35 895 -32 q 862 -37 878 -37 q 830 -16 846 -37 q 803 27 813 5 q 751 244 775 141 q 705 434 727 347 q 463 347 553 379 q 347 303 374 314 q 330 287 341 293 q 309 282 320 282 q 241 320 293 282 q 179 423 189 358 q 184 439 179 439 q 200 428 189 439 q 241 390 217 401 q 303 379 265 379 q 439 401 341 379 q 694 472 537 423 q 661 594 678 531 q 629 721 645 656 q 420 661 493 683 q 341 629 347 640 q 328 615 336 618 q 309 613 320 613 q 236 648 282 613 q 179 732 189 683 q 187 751 179 748 q 206 737 195 754 q 252 708 227 716 q 303 699 276 699 q 425 713 347 699 q 618 759 504 727 q 572 903 591 851 q 542 971 553 954 q 507 995 531 987 q 450 1009 482 1003 q 439 1014 439 1009 q 450 1030 439 1020 q 485 1039 466 1036 q 520 1041 504 1041 q 637 1011 607 1030 q 667 982 667 992 q 661 965 667 971 q 640 954 656 960 q 653 870 645 916 q 672 775 661 824 q 832 811 775 792 q 900 851 889 830 q 919 862 906 862 q 954 857 933 862 q 1028 832 998 846 q 1058 797 1058 819 q 1049 789 1058 792 q 1025 786 1041 786 q 897 773 982 786 q 683 737 813 759 q 721 610 705 672 q 754 488 737 548 q 895 523 819 504 q 1052 569 971 542 q 1082 580 1068 575 q 1101 596 1096 585 q 1128 607 1112 607 q 1161 602 1144 607 q 1237 569 1204 585 q 1269 531 1269 553 q 1261 518 1269 520 q 1237 515 1253 515 q 1058 507 1177 526 q 765 444 938 488 m 1275 938 q 1256 941 1264 938 q 1242 949 1247 944 q 1220 973 1231 960 q 1199 1003 1209 987 q 1158 1044 1182 1025 q 1096 1085 1133 1063 q 1090 1096 1090 1090 q 1101 1101 1090 1101 q 1261 1041 1220 1079 q 1302 965 1302 1003 q 1296 944 1302 949 q 1275 938 1291 938 m 1193 846 q 1185 816 1193 824 q 1161 808 1177 808 q 1133 827 1150 808 q 1090 884 1117 846 q 1047 933 1074 906 q 982 987 1020 960 q 979 995 976 992 q 987 1003 982 998 q 1123 944 1052 987 q 1193 846 1193 900 "},"ゲ":{"x_min":139.25,"x_max":1323.890625,"ha":1389,"o":"m 1074 770 q 1112 784 1096 775 q 1144 803 1128 792 q 1201 778 1177 792 q 1247 748 1226 765 q 1264 729 1258 737 q 1269 716 1269 721 q 1258 699 1269 705 q 1226 699 1247 694 q 1090 713 1182 710 q 857 705 998 716 q 906 672 884 689 q 944 645 927 656 q 973 623 965 634 q 982 602 982 613 q 973 588 982 591 q 949 585 965 585 q 927 577 938 585 q 906 558 916 569 q 689 168 824 325 q 358 -75 553 10 q 344 -78 347 -81 q 341 -59 341 -75 q 629 187 510 37 q 819 537 748 336 q 835 591 830 564 q 841 640 841 618 q 830 675 841 661 q 792 699 819 689 q 656 670 705 683 q 596 651 607 656 q 585 634 591 640 q 575 629 580 629 q 564 632 569 629 q 548 645 558 634 q 512 675 526 661 q 488 699 499 689 q 336 496 417 585 q 162 341 255 406 q 141 341 146 336 q 146 363 135 347 q 404 672 309 515 q 520 992 499 830 q 518 1006 520 998 q 510 1020 515 1014 q 496 1030 504 1025 q 472 1041 488 1036 q 472 1055 466 1052 q 493 1058 477 1058 q 558 1044 526 1058 q 623 1003 591 1030 q 648 979 640 987 q 656 965 656 971 q 651 949 656 954 q 629 944 645 944 q 607 935 618 944 q 591 911 596 927 q 548 811 569 857 q 504 727 526 765 q 659 721 515 710 q 1074 770 803 732 m 1296 960 q 1277 963 1285 960 q 1264 971 1269 965 q 1242 995 1253 982 q 1220 1025 1231 1009 q 1177 1066 1204 1047 q 1117 1106 1150 1085 q 1112 1117 1112 1112 q 1123 1123 1112 1123 q 1280 1063 1237 1101 q 1323 987 1323 1025 q 1318 965 1323 971 q 1296 960 1313 960 m 1188 878 q 1180 849 1188 857 q 1155 841 1171 841 q 1128 859 1144 841 q 1085 916 1112 878 q 1047 957 1074 933 q 976 1020 1020 982 q 973 1028 971 1025 q 982 1036 976 1030 q 1117 976 1047 1020 q 1188 878 1188 933 "},"ャ":{"x_min":206.1875,"x_max":1161.125,"ha":1389,"o":"m 1003 564 q 1003 577 1009 575 q 982 580 998 580 q 819 539 900 558 q 656 504 737 520 q 718 268 689 385 q 775 37 748 151 q 786 -2 781 27 q 803 -75 792 -32 q 803 -108 808 -97 q 775 -119 797 -119 q 740 -111 754 -119 q 721 -86 727 -103 q 716 -46 721 -70 q 705 10 710 -21 q 659 238 683 119 q 602 482 634 358 q 444 428 504 450 q 363 396 385 406 q 344 374 352 379 q 325 368 336 368 q 295 377 314 368 q 255 406 276 385 q 225 439 238 423 q 206 477 211 455 q 217 496 211 493 q 227 488 222 499 q 265 458 244 466 q 320 450 287 450 q 404 466 336 450 q 591 515 472 482 q 567 618 580 569 q 537 710 553 667 q 523 732 531 721 q 499 748 515 743 q 474 756 488 754 q 450 759 461 759 q 439 770 439 765 q 450 781 439 775 q 515 789 488 786 q 558 786 542 792 q 615 765 596 775 q 634 743 634 754 q 632 729 634 732 q 623 727 629 727 q 618 710 618 721 q 618 683 618 699 q 632 610 623 645 q 645 537 640 575 q 824 580 737 558 q 998 623 911 602 q 1020 640 1009 629 q 1036 661 1030 651 q 1093 632 1068 645 q 1139 602 1117 618 q 1155 583 1150 591 q 1161 569 1161 575 q 1152 556 1161 558 q 1123 558 1144 553 q 1096 553 1106 558 q 1074 537 1085 548 q 925 409 1003 466 q 765 309 846 352 q 751 314 754 309 q 754 330 748 320 q 887 439 824 379 q 1003 564 949 499 "},"ニ":{"x_min":135.640625,"x_max":1258.78125,"ha":1389,"o":"m 1058 260 q 699 246 873 260 q 363 200 526 233 q 322 187 341 195 q 287 173 303 179 q 274 157 282 162 q 260 151 265 151 q 230 168 249 151 q 179 217 211 184 q 146 260 157 238 q 135 298 135 282 q 141 311 135 309 q 157 309 146 314 q 203 268 173 282 q 271 255 233 255 q 504 271 325 255 q 987 320 683 287 q 1036 322 1014 320 q 1079 330 1058 325 q 1106 341 1096 336 q 1128 358 1117 347 q 1174 336 1155 347 q 1209 320 1193 325 q 1247 290 1237 303 q 1258 260 1258 276 q 1247 241 1258 244 q 1209 244 1237 238 q 1133 255 1171 249 q 1058 260 1096 260 m 401 710 q 572 721 439 710 q 938 759 705 732 q 960 770 949 765 q 976 786 971 775 q 1033 765 1009 775 q 1079 743 1058 754 q 1101 721 1096 732 q 1106 699 1106 710 q 1090 689 1106 689 q 1041 694 1074 689 q 808 689 949 699 q 472 656 667 678 q 434 645 450 651 q 406 634 417 640 q 393 626 401 629 q 374 623 385 623 q 360 626 368 623 q 341 640 352 629 q 284 694 303 667 q 260 748 265 721 q 268 762 265 759 q 276 759 271 765 q 322 721 293 732 q 401 710 352 710 "},"ベ":{"x_min":59.6875,"x_max":1329.3125,"ha":1389,"o":"m 211 461 q 255 496 233 477 q 298 542 276 515 q 409 651 368 607 q 466 710 450 694 q 504 737 488 727 q 537 748 520 748 q 575 740 553 748 q 623 716 596 732 q 941 518 824 591 q 1096 428 1058 444 q 1182 382 1133 406 q 1291 330 1231 358 q 1321 303 1313 320 q 1329 271 1329 287 q 1323 246 1329 255 q 1302 238 1318 238 q 1272 244 1291 238 q 1231 260 1253 249 q 1155 306 1209 271 q 1009 401 1101 341 q 832 520 927 455 q 629 661 737 585 q 580 689 602 678 q 537 699 558 699 q 507 683 526 699 q 461 640 488 667 q 366 529 406 575 q 293 455 325 482 q 252 409 265 428 q 238 379 238 390 q 233 363 238 368 q 211 358 227 358 q 111 398 157 358 q 59 482 65 439 q 67 496 65 493 q 75 493 70 499 q 122 455 103 466 q 157 444 141 444 q 192 447 179 444 q 211 461 206 450 m 1226 846 q 1207 849 1215 846 q 1193 857 1199 851 q 1171 881 1182 868 q 1150 911 1161 895 q 1106 952 1133 933 q 1047 992 1079 971 q 1041 1003 1041 998 q 1052 1009 1041 1009 q 1158 982 1117 998 q 1220 944 1199 965 q 1245 908 1237 927 q 1253 873 1253 889 q 1247 851 1253 857 q 1226 846 1242 846 m 1106 737 q 1098 708 1106 716 q 1074 699 1090 699 q 1047 718 1063 699 q 1003 775 1030 737 q 965 816 992 792 q 895 878 938 841 q 892 887 889 884 q 900 895 895 889 q 979 865 938 884 q 1058 819 1020 846 q 1096 781 1085 803 q 1106 737 1106 759 "},"ヤ":{"x_min":119.375,"x_max":1269.640625,"ha":1389,"o":"m 260 531 q 249 523 255 526 q 238 520 244 520 q 211 531 227 520 q 168 564 195 542 q 135 604 146 580 q 119 656 124 629 q 124 670 119 667 q 141 661 130 672 q 179 623 157 634 q 227 613 200 613 q 349 629 260 613 q 580 678 439 645 q 558 784 569 732 q 537 884 548 835 q 523 925 531 906 q 499 954 515 944 q 466 971 488 965 q 417 976 444 976 q 404 982 406 976 q 412 998 401 987 q 466 1011 439 1009 q 520 1009 493 1014 q 602 982 575 992 q 629 960 629 971 q 626 944 629 949 q 613 938 623 938 q 604 927 607 933 q 602 911 602 922 q 621 803 613 857 q 640 694 629 748 q 876 740 759 716 q 1101 792 992 765 q 1136 813 1123 803 q 1155 835 1150 824 q 1204 800 1182 819 q 1242 765 1226 781 q 1264 743 1258 754 q 1269 721 1269 732 q 1261 708 1269 710 q 1231 710 1253 705 q 1201 705 1215 710 q 1177 689 1188 699 q 982 523 1079 596 q 786 401 884 450 q 767 401 770 396 q 770 423 765 406 q 949 556 868 482 q 1090 716 1030 629 q 1096 732 1101 727 q 1068 737 1090 737 q 862 694 965 716 q 651 651 759 672 q 743 260 705 423 q 803 0 781 97 q 808 -54 813 -37 q 775 -70 803 -70 q 727 -51 743 -70 q 705 10 710 -32 q 672 238 699 81 q 591 640 645 396 q 447 599 515 618 q 320 564 379 580 q 284 545 298 553 q 260 531 271 537 "},"⌒":{"x_min":30.734375,"x_max":1358.25,"ha":1389,"o":"m 1329 727 q 1030 916 1188 851 q 694 982 873 982 q 360 916 520 982 q 59 727 200 851 q 32 718 37 716 q 37 743 27 721 q 339 957 173 884 q 694 1030 504 1030 q 1052 957 889 1030 q 1351 743 1215 884 q 1356 718 1361 721 q 1329 727 1351 716 "},"ゼ":{"x_min":86.8125,"x_max":1280.484375,"ha":1389,"o":"m 1052 699 q 1063 721 1068 716 q 1030 727 1058 727 q 808 694 922 710 q 575 661 694 678 q 566 355 569 472 q 564 189 564 238 q 588 127 569 146 q 645 108 607 108 l 873 108 q 933 113 906 108 q 987 124 960 119 q 1022 135 1009 130 q 1047 151 1036 141 q 1077 135 1063 146 q 1106 113 1090 124 q 1123 94 1117 103 q 1128 75 1128 86 q 1120 65 1128 70 q 1090 59 1112 59 q 1041 51 1074 54 q 965 48 1009 48 l 629 48 q 537 81 569 48 q 504 179 504 113 l 504 651 q 320 604 385 623 q 244 575 255 585 q 236 561 244 564 q 217 558 227 558 q 184 569 206 558 q 130 607 162 580 q 97 645 108 623 q 86 694 86 667 q 94 713 92 710 q 103 710 97 716 q 138 670 119 683 q 184 656 157 656 q 322 661 244 651 q 504 694 401 672 l 504 895 q 499 919 504 906 q 482 949 493 933 q 458 968 472 960 q 423 982 444 976 q 412 995 412 987 q 428 1009 412 1003 q 504 1003 466 1014 q 585 965 542 992 q 618 935 607 949 q 629 911 629 922 q 626 900 629 906 q 613 895 623 895 q 585 868 596 884 q 575 830 575 851 l 575 705 q 805 737 689 721 q 1041 770 922 754 q 1074 784 1058 775 q 1106 808 1090 792 q 1158 778 1133 792 q 1199 754 1182 765 q 1223 735 1215 743 q 1231 721 1231 727 q 1223 699 1231 705 q 1193 699 1215 694 q 1163 694 1177 699 q 1139 678 1150 689 q 922 504 1030 580 q 705 374 813 428 q 686 379 689 374 q 689 396 683 385 q 895 553 803 477 q 1052 699 987 629 m 1253 971 q 1234 973 1242 971 q 1220 982 1226 976 q 1199 1006 1209 992 q 1177 1036 1188 1020 q 1133 1077 1161 1058 q 1074 1117 1106 1096 q 1068 1128 1068 1123 q 1079 1133 1068 1133 q 1237 1074 1193 1112 q 1280 998 1280 1036 q 1275 976 1280 982 q 1253 971 1269 971 m 1155 878 q 1147 849 1155 857 q 1123 841 1139 841 q 1096 859 1112 841 q 1052 916 1079 878 q 1014 957 1041 933 q 944 1020 987 982 q 941 1028 938 1025 q 949 1036 944 1030 q 1085 976 1014 1020 q 1155 878 1155 933 "},"ヘ":{"x_min":59.6875,"x_max":1329.3125,"ha":1389,"o":"m 211 461 q 255 496 233 477 q 298 542 276 515 q 409 651 368 607 q 466 710 450 694 q 504 737 488 727 q 537 748 520 748 q 575 740 553 748 q 623 716 596 732 q 941 518 824 591 q 1096 428 1058 444 q 1182 382 1133 406 q 1291 330 1231 358 q 1321 303 1313 320 q 1329 271 1329 287 q 1323 246 1329 255 q 1302 238 1318 238 q 1272 244 1291 238 q 1231 260 1253 249 q 1155 306 1209 271 q 1009 401 1101 341 q 832 520 927 455 q 629 661 737 585 q 580 689 602 678 q 537 699 558 699 q 507 683 526 699 q 461 640 488 667 q 366 529 406 575 q 293 455 325 482 q 252 409 265 428 q 238 379 238 390 q 233 363 238 368 q 211 358 227 358 q 111 398 157 358 q 59 482 65 439 q 67 496 65 493 q 75 493 70 499 q 122 455 103 466 q 157 444 141 444 q 192 447 179 444 q 211 461 206 450 "},"モ":{"x_min":92.234375,"x_max":1258.78125,"ha":1389,"o":"m 792 873 q 884 889 851 878 q 922 916 916 900 q 971 895 949 906 q 1014 868 992 884 q 1030 849 1025 857 q 1036 835 1036 841 q 1028 819 1036 824 q 998 819 1020 813 q 897 827 949 824 q 786 824 846 830 q 708 822 754 824 q 602 813 661 819 q 680 770 656 786 q 705 748 705 754 q 699 732 705 743 q 678 710 694 721 q 661 672 667 699 q 656 602 656 645 l 656 548 q 935 567 830 558 q 1074 580 1041 575 q 1109 588 1090 580 q 1150 607 1128 596 q 1199 580 1177 591 q 1231 564 1220 569 q 1253 542 1247 553 q 1258 520 1258 531 q 1253 504 1258 510 q 1231 504 1247 499 q 1028 518 1171 520 q 656 499 884 515 l 656 211 q 672 154 656 173 q 721 135 689 135 l 878 135 q 938 149 911 141 q 982 168 965 157 q 1020 149 1003 157 q 1047 130 1036 141 q 1063 113 1058 124 q 1068 92 1068 103 q 1060 75 1068 81 q 1036 70 1052 70 l 737 70 q 629 108 667 70 q 591 227 591 146 l 591 493 q 363 450 444 466 q 265 428 282 434 q 246 412 255 417 q 227 406 238 406 q 203 417 222 406 q 151 455 184 428 q 111 499 124 477 q 92 542 97 520 q 97 556 92 553 q 113 553 103 558 q 160 515 135 526 q 211 504 184 504 q 387 512 293 504 q 596 537 482 520 l 596 732 q 588 773 596 754 q 558 808 580 792 q 477 792 515 797 q 406 781 439 786 q 385 759 396 765 q 363 754 374 754 q 336 765 352 754 q 298 797 320 775 q 263 841 276 819 q 244 884 249 862 q 249 897 244 895 q 265 889 255 900 q 301 851 282 862 q 347 841 320 841 q 434 841 396 841 q 499 846 472 841 q 664 859 591 851 q 792 873 737 868 "},"マ":{"x_min":103.09375,"x_max":1247.9375,"ha":1389,"o":"m 1144 651 q 960 488 1063 564 q 732 341 857 412 q 805 255 781 298 q 830 168 830 211 q 824 122 830 135 q 803 108 819 108 q 781 113 792 108 q 765 135 770 119 q 659 295 737 206 q 428 461 580 385 q 425 466 423 461 q 439 477 428 472 q 591 423 526 450 q 705 363 656 396 q 911 520 819 439 q 1074 694 1003 602 q 1079 710 1085 705 q 1052 721 1074 716 q 689 686 857 710 q 374 629 520 661 q 306 607 336 618 q 255 591 276 596 q 241 567 249 575 q 222 558 233 558 q 198 572 217 558 q 151 613 179 585 q 116 659 130 634 q 103 705 103 683 q 108 718 103 716 q 124 710 113 721 q 151 678 135 689 q 195 667 168 667 q 268 670 233 667 q 330 678 303 672 q 670 724 482 705 q 1074 759 857 743 q 1101 775 1090 765 q 1123 803 1112 786 l 1209 737 q 1239 708 1231 721 q 1247 689 1247 694 q 1237 675 1247 678 q 1204 672 1226 672 q 1171 667 1188 672 q 1144 651 1155 661 "},"ト":{"x_min":493.75,"x_max":1123.140625,"ha":1389,"o":"m 1041 488 q 1104 428 1085 455 q 1123 379 1123 401 q 1115 341 1123 352 q 1085 330 1106 330 q 1060 341 1074 330 q 1025 379 1047 352 q 881 504 971 450 q 661 596 792 558 l 661 -5 q 656 -51 661 -37 q 634 -65 651 -65 q 604 -54 618 -65 q 580 -16 591 -43 q 575 27 575 0 q 585 92 575 54 q 599 390 596 184 q 596 922 602 596 q 594 968 596 949 q 580 1003 591 987 q 556 1020 575 1014 q 504 1030 537 1025 q 493 1041 493 1036 q 504 1052 493 1047 q 550 1055 526 1058 q 607 1047 575 1052 q 683 1009 651 1030 q 716 965 716 987 q 710 949 716 954 q 694 944 705 944 q 678 933 683 938 q 672 916 672 927 q 664 770 667 846 q 661 618 661 694 q 878 569 786 602 q 1041 488 971 537 "},"フ":{"x_min":206.1875,"x_max":1204.53125,"ha":1389,"o":"m 477 792 q 390 773 423 781 q 347 754 358 765 q 341 740 347 743 q 325 737 336 737 q 301 748 320 737 q 255 786 282 759 q 222 824 233 803 q 206 868 211 846 q 211 881 206 878 q 227 873 217 884 q 263 843 238 851 q 320 835 287 835 q 539 851 368 835 q 1003 900 710 868 q 1041 911 1025 900 q 1068 944 1058 922 q 1123 908 1096 927 q 1177 868 1150 889 q 1199 846 1193 857 q 1204 830 1204 835 q 1196 813 1204 819 q 1166 808 1188 808 q 1136 803 1150 808 q 1117 786 1123 797 q 803 317 1009 510 q 298 21 596 124 q 284 27 287 21 q 287 43 282 32 q 765 363 575 168 q 1047 830 954 558 q 1052 854 1058 846 q 1025 862 1047 862 q 832 838 971 857 q 477 792 694 819 "},"ミ":{"x_min":325.546875,"x_max":1027.640625,"ha":1389,"o":"m 992 54 q 1022 21 1014 37 q 1025 -10 1030 5 q 1006 -51 1020 -43 q 965 -37 992 -59 q 822 67 889 21 q 689 146 754 113 q 558 200 640 173 q 363 255 477 227 q 352 265 352 260 q 363 276 352 271 q 746 192 602 255 q 992 54 889 130 m 933 781 q 914 789 927 781 q 878 813 900 797 q 710 908 813 868 q 466 976 607 949 q 450 990 450 982 q 466 1003 450 998 q 857 930 743 982 q 971 830 971 878 q 963 792 971 803 q 933 781 954 781 m 803 444 q 781 455 797 444 q 743 488 765 466 q 675 542 716 515 q 580 596 634 569 q 469 637 531 618 q 336 672 406 656 q 325 686 325 678 q 336 694 325 694 q 686 626 537 689 q 835 488 835 564 q 827 455 835 466 q 803 444 819 444 "},"ダ":{"x_min":170,"x_max":1334.75,"ha":1389,"o":"m 450 569 q 325 444 390 504 q 184 336 260 385 q 170 341 173 336 q 173 358 168 347 q 423 626 325 482 q 569 927 520 770 q 561 968 575 949 q 510 998 548 987 q 499 1011 499 1003 q 510 1020 499 1020 q 566 1017 542 1020 q 613 1003 591 1014 q 670 965 651 982 q 689 938 689 949 q 686 925 689 927 q 672 922 683 922 q 659 916 667 922 q 645 900 651 911 q 629 865 640 884 q 607 824 618 846 q 786 835 699 830 q 960 851 873 841 q 987 873 976 862 q 1009 900 998 884 q 1041 884 1025 895 q 1079 857 1058 873 q 1101 835 1090 846 q 1112 819 1112 824 q 1106 803 1112 808 q 1090 797 1101 797 q 1066 784 1079 797 q 1041 748 1052 770 q 965 602 1009 678 q 868 450 922 526 q 916 404 900 428 q 927 358 933 379 q 916 328 922 336 q 900 320 911 320 q 870 333 889 320 q 819 379 851 347 q 550 105 694 222 q 238 -81 406 -10 q 219 -75 222 -81 q 222 -59 217 -70 q 542 168 406 48 q 759 423 678 287 q 623 512 699 477 q 450 569 548 548 m 965 781 q 968 800 971 792 q 954 813 965 808 q 786 803 868 808 q 634 792 705 797 q 615 797 623 792 q 602 808 607 803 q 534 689 569 743 q 466 596 499 634 q 659 553 575 580 q 803 488 743 526 q 897 632 857 558 q 965 781 938 705 m 1307 976 q 1288 979 1296 976 q 1275 987 1280 982 q 1253 1011 1264 998 q 1231 1041 1242 1025 q 1188 1082 1215 1063 q 1128 1123 1161 1101 q 1123 1133 1123 1128 q 1133 1139 1123 1139 q 1291 1079 1247 1117 q 1334 1003 1334 1041 q 1329 982 1334 987 q 1307 976 1323 976 m 1226 884 q 1218 854 1226 862 q 1193 846 1209 846 q 1166 865 1182 846 q 1123 922 1150 884 q 1085 963 1112 938 q 1014 1025 1058 987 q 1011 1033 1009 1030 q 1020 1041 1014 1036 q 1155 982 1085 1025 q 1226 884 1226 938 "},"ヲ":{"x_min":233.3125,"x_max":1166.546875,"ha":1389,"o":"m 949 645 q 561 602 694 618 q 417 580 428 585 q 406 566 412 569 q 390 564 401 564 q 363 575 379 564 q 325 613 347 585 q 298 653 309 634 q 282 694 287 672 q 290 708 287 705 q 298 705 293 710 q 341 667 320 678 q 385 656 363 656 q 572 659 428 651 q 960 689 716 667 q 987 784 976 737 q 1003 873 998 830 q 1003 897 1009 889 q 982 906 998 906 q 545 878 694 889 q 385 857 396 868 q 371 843 379 846 q 352 841 363 841 q 328 851 347 841 q 282 889 309 862 q 244 935 255 911 q 233 982 233 960 q 238 995 233 992 q 255 992 244 998 q 311 946 282 960 q 374 938 341 933 q 583 941 428 938 q 992 954 737 944 q 1028 979 1014 965 q 1047 1003 1041 992 q 1087 982 1068 992 q 1128 954 1106 971 q 1158 927 1150 938 q 1166 911 1166 916 q 1158 895 1166 900 q 1128 889 1150 889 q 1106 878 1117 889 q 1090 846 1096 868 q 838 301 1009 520 q 401 -37 667 81 q 382 -32 385 -37 q 390 -16 379 -27 q 737 263 596 97 q 949 645 878 428 "},"ィ":{"x_min":224.625,"x_max":1041.75,"ha":1389,"o":"m 906 808 q 992 770 944 808 q 1041 699 1041 732 q 1036 686 1041 689 q 1014 689 1030 683 q 990 683 1003 689 q 965 661 976 678 q 889 577 938 623 q 775 477 841 531 q 830 444 824 461 q 792 417 835 428 l 792 -86 q 786 -124 792 -113 q 770 -135 781 -135 q 732 -105 754 -135 q 716 -54 710 -75 q 724 -10 721 -37 q 727 48 727 16 l 727 428 q 474 260 596 325 q 238 168 352 195 q 225 173 227 168 q 233 189 222 179 q 632 425 466 298 q 895 699 797 553 q 911 729 906 716 q 916 759 916 743 q 911 773 916 765 q 889 786 906 781 q 878 803 873 797 q 906 808 884 808 "},"ザ":{"x_min":108.515625,"x_max":1323.890625,"ha":1389,"o":"m 472 634 q 325 607 379 618 q 255 585 271 596 q 244 572 249 575 q 227 569 238 569 q 160 613 200 569 q 108 710 119 656 q 122 727 113 727 q 135 716 130 727 q 170 675 146 689 q 238 661 195 661 q 363 664 303 661 q 472 672 423 667 l 472 830 q 466 892 472 868 q 450 927 461 916 q 425 944 439 938 q 390 949 412 949 q 385 963 385 954 q 396 971 385 971 q 515 957 455 982 q 575 906 575 933 q 569 889 575 895 q 553 884 564 884 q 542 868 548 878 q 537 835 537 857 l 537 678 q 697 689 623 683 q 835 699 770 694 l 835 868 q 832 957 835 922 q 824 1009 830 992 q 803 1030 819 1020 q 759 1052 786 1041 q 746 1068 743 1058 q 765 1079 748 1079 q 876 1055 813 1079 q 938 1003 938 1030 q 935 987 938 992 q 922 982 933 982 q 911 946 916 971 q 906 884 906 922 l 906 705 q 1028 708 982 705 q 1090 710 1074 710 q 1128 716 1112 710 q 1155 737 1144 721 q 1245 697 1204 721 q 1285 645 1285 672 q 1261 629 1285 629 q 1188 645 1237 629 q 1085 656 1155 651 q 906 661 1014 661 q 803 227 911 412 q 466 -75 694 43 q 447 -70 450 -75 q 450 -54 444 -65 q 754 260 656 81 q 835 656 851 439 q 678 645 754 651 q 537 634 602 640 q 539 458 537 537 q 542 325 542 379 q 537 295 542 303 q 515 287 531 287 q 499 292 510 287 q 477 309 488 298 q 461 339 466 320 q 461 385 455 358 q 469 474 466 412 q 472 634 472 537 m 1296 987 q 1277 990 1285 987 q 1264 998 1269 992 q 1242 1022 1253 1009 q 1220 1052 1231 1036 q 1177 1093 1204 1074 q 1117 1133 1150 1112 q 1112 1144 1112 1139 q 1123 1150 1112 1150 q 1280 1090 1237 1128 q 1323 1014 1323 1052 q 1318 992 1323 998 q 1296 987 1313 987 m 1220 895 q 1212 865 1220 873 q 1188 857 1204 857 q 1161 876 1177 857 q 1117 933 1144 895 q 1079 973 1106 949 q 1009 1036 1052 998 q 1006 1044 1003 1041 q 1014 1052 1009 1047 q 1150 992 1079 1036 q 1220 895 1220 949 "},"ヂ":{"x_min":130.21875,"x_max":1351.015625,"ha":1389,"o":"m 1323 982 q 1304 984 1313 982 q 1291 992 1296 987 q 1269 1017 1280 1003 q 1247 1047 1258 1030 q 1204 1087 1231 1068 q 1144 1128 1177 1106 q 1139 1139 1139 1133 q 1150 1144 1139 1144 q 1307 1085 1264 1123 q 1351 1009 1351 1047 q 1345 987 1351 992 q 1323 982 1340 982 m 1242 889 q 1234 859 1242 868 q 1209 851 1226 851 q 1182 870 1199 851 q 1139 927 1166 889 q 1101 968 1128 944 q 1030 1030 1074 992 q 1028 1039 1025 1036 q 1036 1047 1030 1041 q 1171 987 1101 1030 q 1242 889 1242 944 m 765 580 q 656 208 770 368 q 303 -59 542 48 q 284 -59 287 -65 q 293 -37 282 -54 q 604 230 504 75 q 694 575 705 385 q 393 534 499 553 q 271 499 287 515 q 260 485 265 488 q 249 482 255 482 q 227 493 244 482 q 184 526 211 504 q 149 572 162 548 q 130 623 135 596 q 141 634 135 634 q 151 623 146 634 q 198 583 173 596 q 255 575 222 569 q 531 602 423 591 q 694 618 640 613 l 694 797 q 686 838 694 824 q 661 846 678 851 q 455 794 558 813 q 249 770 352 775 q 233 781 233 775 q 249 797 233 786 q 621 884 466 835 q 868 987 775 933 q 876 998 878 992 q 862 1014 873 1003 q 843 1020 851 1014 q 835 1036 835 1025 q 849 1041 835 1041 q 884 1036 862 1041 q 927 1020 906 1030 q 971 998 949 1009 q 1011 965 998 982 q 1025 938 1025 949 q 1006 925 1025 927 q 949 933 987 922 q 868 906 922 922 q 732 862 813 889 q 816 830 808 846 q 765 797 824 813 l 765 623 q 1068 642 965 629 q 1182 678 1171 656 q 1228 661 1204 672 q 1280 634 1253 651 q 1313 607 1302 618 q 1323 585 1323 596 q 1310 572 1323 575 q 1269 575 1296 569 q 1044 588 1171 585 q 765 580 916 591 "},"ケ":{"x_min":139.25,"x_max":1269.640625,"ha":1389,"o":"m 1074 770 q 1112 784 1096 775 q 1144 803 1128 792 q 1201 778 1177 792 q 1247 748 1226 765 q 1264 729 1258 737 q 1269 716 1269 721 q 1258 699 1269 705 q 1226 699 1247 694 q 1090 713 1182 710 q 857 705 998 716 q 906 672 884 689 q 944 645 927 656 q 973 623 965 634 q 982 602 982 613 q 973 588 982 591 q 949 585 965 585 q 927 577 938 585 q 906 558 916 569 q 689 168 824 325 q 358 -75 553 10 q 344 -78 347 -81 q 341 -59 341 -75 q 629 187 510 37 q 819 537 748 336 q 835 591 830 564 q 841 640 841 618 q 830 675 841 661 q 792 699 819 689 q 656 670 705 683 q 596 651 607 656 q 585 634 591 640 q 575 629 580 629 q 564 632 569 629 q 548 645 558 634 q 512 675 526 661 q 488 699 499 689 q 336 496 417 585 q 162 341 255 406 q 141 341 146 336 q 146 363 135 347 q 404 672 309 515 q 520 992 499 830 q 518 1006 520 998 q 510 1020 515 1014 q 496 1030 504 1025 q 472 1041 488 1036 q 472 1055 466 1052 q 493 1058 477 1058 q 558 1044 526 1058 q 623 1003 591 1030 q 648 979 640 987 q 656 965 656 971 q 651 949 656 954 q 629 944 645 944 q 607 935 618 944 q 591 911 596 927 q 548 811 569 857 q 504 727 526 765 q 659 721 515 710 q 1074 770 803 732 "},"ゾ":{"x_min":207.984375,"x_max":1280.484375,"ha":1389,"o":"m 1253 971 q 1234 973 1242 971 q 1220 982 1226 976 q 1199 1006 1209 992 q 1177 1036 1188 1020 q 1133 1077 1161 1058 q 1074 1117 1106 1096 q 1068 1128 1068 1123 q 1079 1133 1068 1133 q 1237 1074 1193 1112 q 1280 998 1280 1036 q 1275 976 1280 982 q 1253 971 1269 971 m 1171 878 q 1163 849 1171 857 q 1139 841 1155 841 q 1112 859 1128 841 q 1068 916 1096 878 q 1030 957 1058 933 q 960 1020 1003 982 q 957 1028 954 1025 q 965 1036 960 1030 q 1101 976 1030 1020 q 1171 878 1171 933 m 255 5 q 236 5 238 0 q 238 21 233 10 q 675 355 499 168 q 938 775 851 542 q 949 808 949 792 q 944 841 949 824 q 927 865 938 857 q 895 878 916 873 q 884 889 884 884 q 895 900 884 895 q 957 887 927 900 q 1014 851 987 873 q 1068 803 1052 824 q 1085 765 1085 781 q 1079 748 1085 754 q 1058 748 1074 743 q 1036 740 1047 748 q 1009 716 1025 732 q 686 276 873 455 q 255 5 499 97 m 493 618 q 482 580 493 591 q 455 569 472 569 q 428 588 444 569 q 390 651 412 607 q 333 718 379 678 q 211 813 287 759 q 208 822 206 819 q 222 830 211 824 q 330 789 287 808 q 401 754 374 770 q 474 683 450 716 q 493 618 499 651 "},"タ":{"x_min":197.125,"x_max":1139.421875,"ha":1389,"o":"m 477 596 q 352 472 417 531 q 211 363 287 412 q 198 368 200 363 q 200 385 195 374 q 450 653 352 510 q 596 954 548 797 q 591 995 607 976 q 537 1025 575 1014 q 526 1036 526 1030 q 537 1047 526 1041 q 594 1044 569 1047 q 640 1030 618 1041 q 697 992 678 1009 q 716 965 716 976 q 713 952 716 954 q 699 949 710 949 q 686 944 694 949 q 672 927 678 938 q 656 892 667 911 q 634 851 645 873 q 813 862 727 857 q 987 878 900 868 q 1014 900 1003 889 q 1036 927 1025 911 q 1068 911 1052 922 q 1106 884 1085 900 q 1131 862 1123 873 q 1139 846 1139 851 q 1133 830 1139 835 q 1117 824 1128 824 q 1093 808 1106 819 q 1068 775 1079 797 q 992 629 1036 705 q 895 477 949 553 q 944 431 927 455 q 954 385 960 406 q 946 355 954 363 q 927 347 938 347 q 897 360 916 347 q 846 406 878 374 q 577 132 721 249 q 265 -54 434 16 q 246 -48 249 -54 q 249 -32 244 -43 q 569 195 434 75 q 786 450 705 314 q 651 539 727 504 q 477 596 575 575 m 992 808 q 995 827 998 819 q 982 841 992 835 q 813 830 895 835 q 661 819 732 824 q 642 824 651 819 q 629 835 634 830 q 561 716 596 770 q 493 623 526 661 q 686 580 602 607 q 830 515 770 553 q 925 659 884 585 q 992 808 965 732 "},"ド":{"x_min":477.46875,"x_max":1302.1875,"ha":1389,"o":"m 1025 488 q 1090 428 1074 455 q 1106 379 1106 401 q 1098 341 1106 352 q 1068 330 1090 330 q 1044 341 1058 330 q 1009 379 1030 352 q 865 504 954 450 q 645 596 775 558 l 645 -5 q 640 -51 645 -37 q 618 -65 634 -65 q 588 -54 602 -65 q 564 -16 575 -43 q 561 27 558 0 q 569 92 564 54 q 583 390 580 184 q 580 922 585 596 q 577 968 580 949 q 564 1003 575 987 q 537 1022 553 1020 q 488 1030 520 1025 q 477 1039 477 1030 q 488 1052 477 1047 q 534 1055 510 1058 q 591 1047 558 1052 q 667 1009 634 1030 q 699 965 699 987 q 694 949 699 954 q 678 944 689 944 q 661 935 667 944 q 656 916 656 927 q 648 770 651 846 q 645 618 645 694 q 862 569 770 602 q 1025 488 954 537 m 1275 830 q 1256 832 1264 830 q 1242 841 1247 835 q 1220 865 1231 851 q 1199 895 1209 878 q 1155 935 1182 916 q 1096 976 1128 954 q 1090 987 1090 982 q 1101 992 1090 992 q 1258 933 1215 971 q 1302 857 1302 895 q 1296 835 1302 841 q 1275 830 1291 830 m 1161 748 q 1152 718 1161 727 q 1128 710 1144 710 q 1101 729 1117 710 q 1058 786 1085 748 q 1020 827 1047 803 q 949 889 992 851 q 946 897 944 895 q 954 906 949 900 q 1090 846 1020 889 q 1161 748 1161 803 "},"ホ":{"x_min":150.375,"x_max":1237.078125,"ha":1389,"o":"m 1215 211 q 1201 157 1215 173 q 1166 141 1188 141 q 1144 162 1155 141 q 1117 233 1133 184 q 1055 358 1101 282 q 889 531 1009 434 q 887 539 884 537 q 900 548 889 542 q 1139 363 1063 461 q 1215 211 1215 265 m 238 141 q 217 122 227 130 q 195 113 206 113 q 170 127 179 113 q 157 168 162 141 q 165 195 157 179 q 189 222 173 211 q 311 358 255 271 q 412 553 368 444 q 431 569 417 569 q 439 553 444 569 q 347 298 406 412 q 238 141 287 184 m 732 710 q 735 352 732 488 q 737 162 737 217 q 729 70 743 108 q 683 10 716 32 q 653 -10 667 -5 q 629 -16 640 -16 q 618 -8 623 -16 q 613 16 613 0 q 607 46 613 32 q 585 75 602 59 q 499 154 537 119 q 428 217 461 189 q 425 230 423 227 q 444 233 428 233 q 537 173 493 200 q 618 119 580 146 q 653 108 640 103 q 667 141 667 113 l 667 710 q 553 699 613 705 q 434 689 493 694 q 355 672 385 678 q 309 661 325 667 q 295 653 303 656 q 271 651 287 651 q 246 659 260 651 q 211 683 233 667 q 160 740 173 716 q 151 781 146 765 q 157 794 151 792 q 173 786 162 797 q 217 746 189 759 q 287 732 244 732 q 436 735 341 732 q 667 748 531 737 l 667 900 q 645 960 667 933 q 580 1003 623 987 q 569 1014 569 1009 q 580 1025 569 1020 q 623 1022 607 1025 q 651 1020 640 1020 q 740 987 710 1003 q 770 954 770 971 q 765 938 770 944 q 748 933 759 933 q 737 922 743 933 q 732 889 732 911 l 732 748 q 854 756 792 754 q 982 765 916 759 q 1068 775 1036 765 q 1117 803 1101 786 q 1169 781 1144 792 q 1209 754 1193 770 q 1231 732 1226 743 q 1237 710 1237 721 q 1228 699 1237 699 q 1204 705 1220 699 q 1025 713 1144 710 q 732 710 906 716 "},"ヾ":{"x_min":356.734375,"x_max":1247.9375,"ha":1389,"o":"m 374 792 q 805 515 656 683 q 954 211 954 347 q 941 170 954 184 q 911 157 927 157 q 892 162 900 157 q 878 179 884 168 q 729 436 803 325 q 580 618 656 548 q 477 702 531 661 q 368 770 423 743 q 358 786 352 775 q 374 792 363 797 m 868 878 q 1039 805 971 862 q 1106 699 1106 748 q 1098 670 1106 678 q 1074 661 1090 661 q 1052 670 1063 661 q 1030 694 1041 678 q 1014 727 1025 710 q 987 759 1003 743 q 935 811 965 786 q 868 857 906 835 q 857 868 857 862 q 868 878 857 873 m 1085 933 q 1036 960 1063 949 q 982 982 1009 971 q 960 998 960 992 q 982 1009 960 1003 q 1182 946 1117 992 q 1247 868 1247 900 q 1242 838 1247 846 q 1220 830 1237 830 q 1196 838 1209 830 q 1166 862 1182 846 q 1133 895 1155 878 q 1085 933 1112 911 "},"ヴ":{"x_min":273.453125,"x_max":1367.296875,"ha":1389,"o":"m 748 938 l 748 808 q 892 811 819 808 q 1041 819 965 813 q 1068 835 1058 824 q 1090 857 1079 846 q 1131 824 1112 841 q 1166 792 1150 808 q 1188 765 1182 775 q 1193 748 1193 754 q 1185 740 1193 743 q 1155 737 1177 737 q 1139 729 1144 737 q 1128 705 1133 721 q 865 211 1041 417 q 417 -113 689 5 q 398 -113 401 -119 q 401 -92 396 -108 q 824 260 661 48 q 1058 748 987 472 q 1060 765 1063 759 q 1047 775 1058 770 q 705 754 868 765 q 401 727 542 743 l 401 531 q 409 428 406 472 q 412 358 412 385 q 412 325 417 336 q 396 314 406 314 q 379 320 390 314 q 352 336 368 325 q 330 363 336 347 q 330 396 325 379 q 339 496 336 423 q 336 683 341 569 q 333 737 336 716 q 325 775 330 759 q 314 789 325 781 q 282 808 303 797 q 274 819 271 813 q 287 830 276 824 q 347 816 314 830 q 412 775 379 803 q 539 786 472 781 q 683 803 607 792 l 683 971 q 678 1009 683 992 q 661 1030 672 1025 q 642 1039 656 1036 q 613 1047 629 1041 q 596 1052 596 1047 q 607 1068 596 1058 q 675 1068 640 1074 q 748 1052 710 1063 q 781 1033 770 1041 q 792 1014 792 1025 q 789 998 792 1003 q 775 992 786 992 q 759 973 765 987 q 748 938 754 960 m 1052 1036 q 1220 949 1182 987 q 1258 884 1258 911 q 1250 854 1258 862 q 1226 846 1242 846 q 1204 851 1215 846 q 1188 868 1193 857 q 1163 903 1177 884 q 1133 944 1150 922 q 1101 979 1123 960 q 1047 1020 1079 998 q 1044 1028 1041 1025 q 1052 1036 1047 1030 m 1166 1139 q 1321 1082 1275 1123 q 1367 1014 1367 1041 q 1361 982 1367 992 q 1340 971 1356 971 q 1321 976 1329 971 q 1302 992 1313 982 q 1275 1028 1285 1014 q 1253 1052 1264 1041 q 1209 1090 1231 1074 q 1161 1123 1188 1106 q 1158 1131 1155 1128 q 1166 1139 1161 1133 "},"ロ":{"x_min":238.734375,"x_max":1112.28125,"ha":1389,"o":"m 336 173 q 341 255 341 206 q 336 368 341 303 q 336 537 341 450 q 314 721 330 623 q 301 751 309 737 q 282 775 293 765 q 263 786 271 781 q 249 797 255 792 q 238 805 238 803 q 249 813 238 808 q 333 794 298 813 q 385 737 368 775 q 675 759 526 748 q 976 786 824 770 q 995 803 987 792 q 1009 824 1003 813 q 1052 792 1030 808 q 1090 759 1074 775 q 1106 740 1101 748 q 1112 727 1112 732 q 1106 713 1112 716 q 1085 710 1101 710 q 1071 702 1079 710 q 1058 683 1063 694 q 1009 488 1036 585 q 954 293 982 390 q 976 295 965 293 q 1003 303 987 298 q 1033 292 1020 298 q 1058 276 1047 287 q 1079 255 1074 265 q 1085 238 1085 244 q 1077 230 1085 233 q 1047 227 1068 227 q 878 233 982 233 q 634 222 775 233 q 480 211 537 217 q 406 206 423 206 q 406 173 406 189 q 406 146 406 157 q 404 113 406 124 q 390 103 401 103 q 377 108 385 103 q 352 130 368 113 q 341 146 347 135 q 336 173 336 157 m 906 287 q 949 515 927 401 q 992 743 971 629 q 683 716 835 727 q 385 694 531 705 q 396 469 390 580 q 401 249 401 358 q 656 265 531 255 q 906 287 781 276 "},"ォ":{"x_min":153.71875,"x_max":1182.828125,"ha":1389,"o":"m 792 786 q 816 765 808 775 q 824 748 824 754 q 822 737 824 743 q 813 732 819 732 q 797 710 803 721 q 792 689 792 699 l 792 558 q 911 561 851 558 q 1030 569 971 564 q 1052 577 1041 569 q 1074 596 1063 585 q 1117 575 1096 585 q 1161 548 1139 564 q 1177 529 1171 537 q 1182 510 1182 520 q 1174 501 1182 504 q 1144 504 1166 499 q 1079 512 1117 510 q 998 520 1041 515 l 792 520 l 792 173 q 800 86 797 124 q 803 21 803 48 q 794 -24 803 -5 q 765 -59 786 -43 q 743 -75 754 -70 q 721 -81 732 -81 q 710 -73 716 -81 q 699 -48 705 -65 q 664 0 705 -37 q 537 103 623 37 q 529 122 526 119 q 548 119 531 124 q 621 75 580 97 q 705 32 661 54 q 724 29 716 27 q 732 48 732 32 l 732 439 q 499 184 640 298 q 168 -21 358 70 q 154 -16 157 -21 q 157 0 151 -10 q 482 238 347 108 q 699 520 618 368 q 569 501 634 510 q 439 488 504 493 q 401 477 417 482 q 368 461 385 472 q 360 455 368 455 q 341 455 352 455 q 328 458 336 455 q 309 466 320 461 q 271 504 287 482 q 238 553 255 526 q 244 566 238 564 q 260 564 249 569 q 303 539 282 548 q 352 531 325 531 q 523 537 428 531 q 732 558 618 542 l 732 727 q 729 748 732 737 q 716 770 727 759 q 697 781 710 775 q 667 792 683 786 q 651 800 651 792 q 667 819 651 808 q 735 811 705 819 q 792 786 765 803 "},"チ":{"x_min":119.375,"x_max":1307.609375,"ha":1389,"o":"m 792 613 q 686 214 803 379 q 325 -54 569 48 q 311 -48 314 -54 q 314 -32 309 -43 q 629 241 526 81 q 721 607 732 401 q 404 561 515 580 q 276 531 293 542 q 265 518 271 520 q 255 515 260 515 q 227 529 249 515 q 168 569 206 542 q 132 607 146 585 q 119 656 119 629 q 130 667 124 667 q 141 656 135 667 q 195 615 168 629 q 249 607 222 602 q 534 629 417 618 q 721 651 651 640 l 721 830 q 713 876 721 862 q 683 884 705 889 q 453 827 575 851 q 195 792 330 803 q 179 803 179 797 q 195 819 179 808 q 659 930 472 868 q 949 1068 846 992 q 990 1047 971 1058 q 1020 1030 1009 1036 q 1058 1003 1047 1014 q 1068 987 1068 992 q 1047 973 1068 976 q 982 976 1025 971 q 881 935 938 954 q 759 895 824 916 q 843 862 835 878 q 792 830 851 846 l 792 656 q 1020 675 927 661 q 1155 710 1112 689 q 1204 699 1177 710 q 1264 667 1231 689 q 1296 637 1285 651 q 1307 618 1307 623 q 1294 604 1307 607 q 1253 607 1280 602 q 1060 623 1177 623 q 792 613 944 623 "},"ソ":{"x_min":276.71875,"x_max":1188.25,"ha":1389,"o":"m 1117 944 q 1171 895 1155 916 q 1188 857 1188 873 q 1182 843 1188 846 q 1161 841 1177 841 q 1139 830 1150 841 q 1117 803 1128 819 q 797 298 1003 499 q 293 -5 591 97 q 276 2 276 -5 q 287 21 276 10 q 754 341 564 130 q 1047 868 944 553 q 1058 897 1058 884 q 1047 927 1058 911 q 1028 949 1041 938 q 992 965 1014 960 q 982 976 982 971 q 992 987 982 982 q 1055 976 1025 987 q 1117 944 1085 965 m 499 797 q 556 716 537 748 q 575 661 575 683 q 567 613 575 629 q 537 596 558 596 q 507 615 520 596 q 482 672 493 634 q 428 781 466 727 q 325 884 390 835 q 322 892 320 889 q 336 900 325 895 q 436 851 396 878 q 499 797 477 824 "},"ボ":{"x_min":150.375,"x_max":1296.765625,"ha":1389,"o":"m 1215 211 q 1201 157 1215 173 q 1166 141 1188 141 q 1144 162 1155 141 q 1117 233 1133 184 q 1055 358 1101 282 q 889 531 1009 434 q 887 539 884 537 q 900 548 889 542 q 1139 363 1063 461 q 1215 211 1215 265 m 238 141 q 217 122 227 130 q 195 113 206 113 q 170 127 179 113 q 157 168 162 141 q 165 195 157 179 q 189 222 173 211 q 311 358 255 271 q 412 553 368 444 q 431 569 417 569 q 439 553 444 569 q 347 298 406 412 q 238 141 287 184 m 732 710 q 735 352 732 488 q 737 162 737 217 q 729 70 743 108 q 683 10 716 32 q 653 -10 667 -5 q 629 -16 640 -16 q 618 -8 623 -16 q 613 16 613 0 q 607 46 613 32 q 585 75 602 59 q 499 154 537 119 q 428 217 461 189 q 425 230 423 227 q 444 233 428 233 q 537 173 493 200 q 618 119 580 146 q 653 108 640 103 q 667 141 667 113 l 667 710 q 553 699 613 705 q 434 689 493 694 q 355 672 385 678 q 309 661 325 667 q 295 653 303 656 q 271 651 287 651 q 246 659 260 651 q 211 683 233 667 q 160 740 173 716 q 151 781 146 765 q 157 794 151 792 q 173 786 162 797 q 217 746 189 759 q 287 732 244 732 q 436 735 341 732 q 667 748 531 737 l 667 900 q 645 960 667 933 q 580 1003 623 987 q 569 1014 569 1009 q 580 1025 569 1020 q 623 1022 607 1025 q 651 1020 640 1020 q 740 987 710 1003 q 770 954 770 971 q 765 938 770 944 q 748 933 759 933 q 737 922 743 933 q 732 889 732 911 l 732 748 q 854 756 792 754 q 982 765 916 759 q 1068 775 1036 765 q 1117 803 1101 786 q 1169 781 1144 792 q 1209 754 1193 770 q 1231 732 1226 743 q 1237 710 1237 721 q 1228 699 1237 699 q 1204 705 1220 699 q 1025 713 1144 710 q 732 710 906 716 m 1269 965 q 1250 968 1258 965 q 1237 976 1242 971 q 1215 1001 1226 987 q 1193 1030 1204 1014 q 1150 1071 1177 1052 q 1090 1112 1123 1090 q 1085 1123 1085 1117 q 1096 1128 1085 1128 q 1253 1068 1209 1106 q 1296 992 1296 1030 q 1291 971 1296 976 q 1269 965 1285 965 m 1139 889 q 1131 859 1139 868 q 1106 851 1123 851 q 1079 870 1096 851 q 1036 927 1063 889 q 998 968 1025 944 q 927 1030 971 992 q 925 1039 922 1036 q 933 1047 927 1041 q 1068 987 998 1030 q 1139 889 1139 944 "},"ヌ":{"x_min":116.65625,"x_max":1128.5625,"ha":1389,"o":"m 1090 878 q 1112 859 1106 868 q 1117 846 1117 851 q 1109 832 1117 835 q 1085 830 1101 830 q 1055 822 1068 830 q 1030 797 1041 813 q 935 602 987 689 q 830 450 884 515 q 925 390 873 428 q 1030 303 976 352 q 1104 225 1079 260 q 1128 168 1128 189 q 1120 130 1128 141 q 1090 119 1112 119 q 1060 141 1085 119 q 998 211 1036 162 q 908 298 960 255 q 792 390 857 341 q 499 149 661 249 q 141 -16 336 48 q 119 -16 124 -21 q 119 0 113 -10 q 482 203 330 97 q 727 428 634 309 q 567 510 661 472 q 341 585 472 548 q 333 596 330 591 q 352 607 336 602 q 588 556 482 585 q 770 482 694 526 q 876 648 830 564 q 949 824 922 732 q 949 835 954 830 q 927 841 944 841 q 708 811 819 824 q 482 781 596 797 q 423 767 444 775 q 396 754 401 759 q 390 740 396 743 q 374 737 385 737 q 344 748 363 737 q 298 786 325 759 q 257 832 271 808 q 244 884 244 857 q 249 897 244 895 q 265 889 255 900 q 311 849 287 862 q 363 835 336 835 q 585 846 439 835 q 954 884 732 857 q 973 906 965 895 q 987 933 982 916 q 1033 908 1009 922 q 1090 878 1058 895 "},"コ":{"x_min":249.59375,"x_max":1150.265625,"ha":1389,"o":"m 1112 282 q 1125 268 1123 276 q 1128 249 1128 260 q 1120 236 1128 238 q 1096 238 1112 233 q 881 257 1030 260 q 499 227 732 255 q 423 211 450 217 q 385 200 396 206 q 371 187 379 189 q 352 184 363 184 q 339 189 347 184 q 314 211 330 195 q 265 274 282 244 q 249 325 249 303 q 255 339 249 336 q 271 330 260 341 q 311 290 287 303 q 368 276 336 276 q 472 276 428 276 q 537 282 515 276 q 732 295 623 287 q 965 314 841 303 q 995 512 982 412 q 1020 721 1009 613 q 724 697 846 705 q 531 683 602 689 q 477 678 504 683 q 428 667 450 672 q 409 651 417 656 q 396 645 401 645 q 379 651 390 645 q 352 667 368 656 q 295 729 314 699 q 276 781 276 759 q 282 794 276 792 q 298 786 287 797 q 347 748 325 759 q 385 737 368 737 q 463 737 423 737 q 548 743 504 737 q 743 754 629 748 q 1003 765 857 759 q 1022 781 1014 770 q 1041 803 1030 792 q 1093 773 1068 786 q 1133 748 1117 759 q 1147 735 1144 743 q 1150 721 1150 727 q 1144 710 1150 716 q 1123 705 1139 705 q 1104 694 1112 699 q 1090 683 1096 689 q 1058 504 1074 591 q 1025 330 1041 417 q 1074 309 1052 320 q 1112 282 1096 298 "},"カ":{"x_min":126.59375,"x_max":1166.546875,"ha":1389,"o":"m 1036 743 q 870 724 954 732 q 699 710 786 716 q 520 263 661 450 q 141 -37 379 75 q 127 -32 130 -37 q 130 -16 124 -27 q 466 292 341 113 q 629 705 591 472 q 442 675 510 689 q 358 651 374 661 q 347 637 352 640 q 330 634 341 634 q 303 645 320 634 q 260 683 287 656 q 222 732 233 710 q 211 775 211 754 q 217 789 211 786 q 233 781 222 792 q 276 740 249 754 q 336 727 303 727 q 485 732 412 727 q 634 748 558 737 q 651 832 645 792 q 656 916 656 873 q 656 954 661 938 q 640 987 651 971 q 621 1006 634 998 q 585 1020 607 1014 q 575 1030 575 1025 q 585 1041 575 1036 q 683 1025 640 1041 q 765 982 727 1009 q 781 963 775 971 q 786 949 786 954 q 781 938 786 944 q 765 933 775 933 q 751 927 759 933 q 737 911 743 922 q 724 841 732 878 q 705 754 716 803 q 846 765 775 759 q 987 781 916 770 q 1022 800 1009 786 q 1047 830 1036 813 q 1101 792 1079 808 q 1139 765 1123 775 q 1161 746 1155 754 q 1166 732 1166 737 q 1163 721 1166 727 q 1150 716 1161 716 q 1131 705 1139 710 q 1112 689 1123 699 q 1063 415 1090 531 q 1003 222 1036 298 q 906 78 971 124 q 803 32 841 32 q 773 48 781 32 q 765 81 765 65 q 754 111 765 92 q 721 151 743 130 q 675 198 699 173 q 623 249 651 222 q 621 268 618 265 q 640 265 623 271 q 713 214 678 238 q 781 168 748 189 q 811 151 797 157 q 830 146 824 146 q 851 151 841 146 q 873 168 862 157 q 979 382 938 238 q 1036 743 1020 526 "},"エ":{"x_min":92.234375,"x_max":1269.640625,"ha":1389,"o":"m 651 721 q 694 699 672 710 q 732 678 716 689 q 762 656 754 667 q 770 640 770 645 q 762 621 770 629 q 737 613 754 613 q 735 450 737 531 q 727 293 732 368 q 952 295 868 293 q 1063 298 1036 298 q 1109 306 1090 298 q 1144 330 1128 314 q 1228 287 1188 320 q 1269 233 1269 255 q 1261 219 1269 222 q 1231 222 1253 217 q 1142 238 1188 233 q 1052 244 1096 244 q 694 244 878 255 q 314 200 510 233 q 276 192 293 195 q 249 184 260 189 q 236 170 244 173 q 211 168 227 168 q 154 203 195 168 q 92 287 113 238 q 97 306 92 303 q 113 298 103 309 q 160 268 135 276 q 211 260 184 260 q 390 263 276 255 q 667 287 504 271 l 667 580 q 656 653 667 623 q 591 716 645 683 q 423 691 482 699 q 352 678 363 683 q 330 664 341 667 q 309 661 320 661 q 290 670 303 661 q 255 699 276 678 q 219 740 233 721 q 206 781 206 759 q 214 794 211 792 q 222 792 217 797 q 265 754 238 765 q 325 743 293 743 l 434 743 q 683 762 553 754 q 949 781 813 770 q 990 794 971 786 q 1020 808 1009 803 q 1060 786 1041 797 q 1096 765 1079 775 q 1117 743 1112 754 q 1123 727 1123 732 q 1115 713 1123 716 q 1090 716 1106 710 q 908 729 1020 727 q 651 721 797 732 "},"ヨ":{"x_min":303.84375,"x_max":1090.578125,"ha":1389,"o":"m 987 895 q 1033 865 1014 878 q 1063 841 1052 851 q 1085 822 1079 830 q 1090 808 1090 813 q 1079 792 1090 797 q 1041 786 1068 786 q 1014 360 1025 520 q 1003 151 1003 200 q 992 113 1003 124 q 954 103 982 103 q 935 116 944 103 q 922 157 927 130 q 583 127 699 141 q 455 108 466 113 q 434 94 444 97 q 412 92 423 92 q 393 100 406 92 q 358 130 379 108 q 322 173 336 151 q 309 217 309 195 q 320 230 314 227 q 330 222 325 233 q 374 189 352 200 q 423 179 396 179 q 583 184 455 179 q 927 200 710 189 q 938 339 933 265 q 949 499 944 412 q 651 474 765 488 q 488 450 537 461 q 472 436 482 439 q 450 434 461 434 q 417 444 434 434 q 379 477 401 455 q 355 515 363 493 q 347 558 347 537 q 352 569 347 569 q 368 558 358 569 q 417 520 390 531 q 477 515 444 510 q 775 531 656 526 q 949 542 895 537 q 960 667 954 602 q 965 803 965 732 q 599 773 727 786 q 450 754 472 759 q 431 732 439 737 q 412 727 423 727 q 390 737 406 727 q 347 775 374 748 q 314 816 325 797 q 303 857 303 835 q 309 870 303 868 q 325 862 314 873 q 366 830 347 841 q 401 819 385 819 q 585 824 450 819 q 938 841 721 830 q 963 865 949 851 q 987 895 976 878 "},"ョ":{"x_min":352.671875,"x_max":1003.765625,"ha":1389,"o":"m 927 65 q 919 32 927 43 q 895 21 911 21 q 868 35 878 21 q 857 81 857 48 q 621 56 716 70 q 477 32 526 43 q 463 16 472 21 q 450 10 455 10 q 436 16 444 10 q 412 32 428 21 q 377 70 390 48 q 358 119 363 92 q 366 132 363 130 q 374 130 368 135 q 412 97 390 108 q 461 92 434 86 q 710 111 607 103 q 868 124 813 119 q 876 244 873 184 q 878 368 878 303 q 613 336 705 347 q 504 320 520 325 q 491 303 499 309 q 477 298 482 298 q 453 303 466 298 q 423 325 439 309 q 401 355 412 336 q 379 396 390 374 q 385 409 379 406 q 401 401 390 412 q 434 377 412 385 q 482 374 455 368 q 751 390 651 385 q 878 401 851 396 l 878 613 q 588 577 689 591 q 472 558 488 564 q 461 542 466 548 q 450 537 455 537 q 425 545 439 537 q 396 569 412 553 q 368 604 379 585 q 352 645 358 623 q 360 656 358 656 q 368 651 363 656 q 401 621 379 629 q 455 618 423 613 q 729 634 629 629 q 862 645 830 640 q 884 661 873 651 q 906 689 895 672 q 979 642 954 661 q 1003 613 1003 623 q 992 596 1003 602 q 954 591 982 591 q 944 298 949 428 q 927 65 938 168 "},"ブ":{"x_min":141.078125,"x_max":1329.3125,"ha":1389,"o":"m 330 754 q 309 743 320 748 q 282 727 298 737 q 276 713 282 716 q 260 710 271 710 q 236 721 255 710 q 189 759 217 732 q 157 797 168 775 q 141 841 146 819 q 146 854 141 851 q 162 846 151 857 q 198 816 173 824 q 255 808 222 808 q 439 819 276 808 q 900 857 602 830 q 954 873 933 862 q 982 906 976 884 q 1041 870 1014 889 q 1090 830 1068 851 q 1112 803 1106 813 q 1117 786 1117 792 q 1109 773 1117 775 q 1079 770 1101 770 q 1052 765 1063 770 q 1036 748 1041 759 q 721 255 916 444 q 249 -10 526 65 q 230 -5 233 -10 q 238 16 227 0 q 675 298 493 103 q 960 792 857 493 q 963 816 965 808 q 944 824 960 824 q 732 800 884 819 q 330 754 580 781 m 1302 976 q 1283 979 1291 976 q 1269 987 1275 982 q 1247 1011 1258 998 q 1226 1041 1237 1025 q 1182 1082 1209 1063 q 1123 1123 1155 1101 q 1117 1133 1117 1128 q 1128 1139 1117 1139 q 1234 1112 1193 1128 q 1296 1074 1275 1096 q 1321 1039 1313 1058 q 1329 1003 1329 1020 q 1323 982 1329 987 q 1302 976 1318 976 m 1215 878 q 1207 849 1215 857 q 1182 841 1199 841 q 1155 859 1171 841 q 1112 916 1139 878 q 1074 957 1101 933 q 1003 1020 1047 982 q 1001 1028 998 1025 q 1009 1036 1003 1030 q 1087 1006 1047 1025 q 1166 960 1128 987 q 1204 922 1193 944 q 1215 878 1215 900 "},"リ":{"x_min":358.109375,"x_max":976.640625,"ha":1389,"o":"m 374 982 q 363 992 363 987 q 374 1003 363 998 q 455 998 417 1003 q 520 976 493 992 q 553 957 542 965 q 564 938 564 949 q 561 922 564 927 q 548 916 558 916 q 537 900 542 911 q 531 868 531 889 q 531 604 531 759 q 531 450 531 450 q 529 385 537 406 q 499 363 520 363 q 485 368 493 363 q 466 390 477 374 q 453 417 455 406 q 450 439 450 428 q 458 480 455 455 q 461 531 461 504 l 461 895 q 444 946 461 927 q 374 982 428 965 m 374 -75 q 358 -62 358 -70 q 368 -43 358 -54 q 740 203 618 54 q 857 558 862 352 l 857 938 q 843 992 857 965 q 765 1030 830 1020 q 762 1039 759 1036 q 770 1047 765 1041 q 854 1047 813 1052 q 927 1025 895 1041 q 965 1003 954 1014 q 976 987 976 992 q 965 957 976 971 q 927 933 954 944 l 927 558 q 794 170 933 330 q 374 -75 656 10 "},"ヅ":{"x_min":173.625,"x_max":1340.171875,"ha":1389,"o":"m 651 667 q 629 686 640 667 q 602 743 618 705 q 577 786 596 765 q 531 835 558 808 q 491 865 515 851 q 439 889 466 878 q 431 906 428 900 q 444 911 434 911 q 520 895 482 906 q 591 862 558 884 q 642 824 623 841 q 672 792 661 808 q 694 737 689 765 q 694 689 699 710 q 683 672 694 678 q 651 667 672 667 m 379 531 q 349 545 363 531 q 330 585 336 558 q 317 629 330 602 q 282 689 303 656 q 246 724 271 705 q 184 765 222 743 q 173 781 173 775 q 189 786 173 786 q 263 767 227 781 q 325 732 298 754 q 366 694 347 716 q 396 651 385 672 q 412 613 406 629 q 417 585 417 596 q 409 545 417 558 q 379 531 401 531 m 1041 765 q 1041 827 1058 803 q 982 868 1025 851 q 971 878 971 873 q 982 889 971 884 q 1039 881 1009 889 q 1101 851 1068 873 q 1166 803 1144 824 q 1188 765 1188 781 q 1185 748 1193 754 q 1161 743 1177 743 q 1131 724 1144 737 q 1101 689 1117 710 q 765 249 971 423 q 271 -10 558 75 q 257 -2 260 -10 q 265 16 255 5 q 735 306 542 119 q 1041 765 927 493 m 1036 1036 q 1188 954 1150 992 q 1226 884 1226 916 q 1218 859 1226 868 q 1193 851 1209 851 q 1171 859 1182 851 q 1150 889 1161 868 q 1128 927 1144 906 q 1090 971 1112 949 q 1063 992 1079 982 q 1030 1014 1047 1003 q 1022 1025 1020 1020 q 1036 1036 1025 1030 m 1139 1139 q 1288 1079 1237 1123 q 1340 1003 1340 1036 q 1332 979 1340 987 q 1307 971 1323 971 q 1285 976 1296 971 q 1269 998 1275 982 q 1250 1033 1264 1014 q 1220 1068 1237 1052 q 1190 1093 1209 1079 q 1139 1123 1171 1106 q 1128 1131 1128 1128 q 1139 1139 1128 1133 "},"ハ":{"x_min":67.8125,"x_max":1285.90625,"ha":1389,"o":"m 1199 287 q 1055 512 1161 390 q 797 727 949 634 q 786 743 781 737 q 808 743 792 748 q 1155 515 1025 651 q 1285 287 1285 379 q 1277 255 1285 265 q 1253 244 1269 244 q 1220 255 1237 244 q 1199 287 1204 265 m 553 737 q 607 683 591 705 q 623 651 623 661 q 618 637 623 640 q 596 634 613 634 q 575 626 585 634 q 553 607 564 618 q 341 355 455 466 q 97 162 227 244 q 70 157 75 151 q 70 179 65 162 q 309 404 206 282 q 488 667 412 526 q 491 718 499 699 q 450 748 482 737 q 442 759 439 754 q 455 770 444 765 q 512 762 488 770 q 553 737 537 754 "},"ァ":{"x_min":244.15625,"x_max":1117.71875,"ha":1389,"o":"m 640 466 q 596 488 602 477 q 618 504 591 499 q 705 493 678 504 q 721 455 732 482 q 849 542 792 499 q 949 634 906 585 q 968 664 971 656 q 938 672 965 672 q 539 618 678 640 q 379 580 401 596 q 363 566 374 569 q 341 564 352 564 q 290 594 325 564 q 244 667 255 623 q 249 689 244 683 q 260 683 255 694 q 309 653 282 661 q 368 651 336 645 q 626 675 477 661 q 965 710 775 689 q 995 718 982 710 q 1025 737 1009 727 q 1066 705 1047 721 q 1096 672 1085 689 q 1112 645 1106 656 q 1117 629 1117 634 q 1109 621 1117 623 q 1085 623 1101 618 q 1049 615 1068 623 q 1009 591 1030 607 q 903 520 976 564 q 721 423 830 477 q 604 92 705 227 q 320 -124 504 -43 q 306 -119 309 -124 q 314 -103 303 -113 q 569 146 488 5 q 640 466 651 287 "},"バ":{"x_min":67.8125,"x_max":1285.90625,"ha":1389,"o":"m 1199 287 q 1055 512 1161 390 q 797 727 949 634 q 786 743 781 737 q 808 743 792 748 q 1155 515 1025 651 q 1285 287 1285 379 q 1277 255 1285 265 q 1253 244 1269 244 q 1220 255 1237 244 q 1199 287 1204 265 m 553 737 q 607 683 591 705 q 623 651 623 661 q 618 637 623 640 q 596 634 613 634 q 575 626 585 634 q 553 607 564 618 q 341 355 455 466 q 97 162 227 244 q 70 157 75 151 q 70 179 65 162 q 309 404 206 282 q 488 667 412 526 q 491 718 499 699 q 450 748 482 737 q 442 759 439 754 q 455 770 444 765 q 512 762 488 770 q 553 737 537 754 m 1258 878 q 1239 881 1247 878 q 1226 889 1231 884 q 1204 914 1215 900 q 1182 944 1193 927 q 1139 984 1166 965 q 1079 1025 1112 1003 q 1074 1036 1074 1030 q 1085 1041 1074 1041 q 1242 982 1199 1020 q 1285 906 1285 944 q 1280 884 1285 889 q 1258 878 1275 878 m 1161 781 q 1152 751 1161 759 q 1128 743 1144 743 q 1101 762 1117 743 q 1058 819 1085 781 q 1020 859 1047 835 q 949 922 992 884 q 946 930 944 927 q 954 938 949 933 q 1090 878 1020 922 q 1161 781 1161 835 "},"ジ":{"x_min":173.625,"x_max":1331.484375,"ha":1389,"o":"m 1302 775 q 1326 778 1318 781 q 1329 759 1334 775 q 1014 425 1199 591 q 596 103 830 260 q 534 56 558 75 q 504 27 510 37 q 493 10 499 16 q 477 5 488 5 q 458 10 472 5 q 417 32 444 16 q 385 54 401 43 q 352 81 368 65 q 322 132 330 103 q 314 200 314 162 q 320 214 314 211 q 336 206 325 217 q 371 143 352 162 q 417 124 390 124 q 477 135 444 124 q 548 168 510 146 q 963 455 775 303 q 1302 775 1150 607 m 537 813 q 461 884 510 857 q 347 927 412 911 q 339 938 336 933 q 352 949 341 944 q 499 930 439 949 q 596 873 558 911 q 626 835 618 851 q 634 803 634 819 q 623 773 634 781 q 591 765 613 765 q 567 775 580 765 q 537 813 553 786 m 472 520 q 469 504 472 510 q 461 493 466 499 q 450 485 455 488 q 434 482 444 482 q 409 493 423 482 q 374 531 396 504 q 295 599 341 569 q 189 645 249 629 q 173 656 173 651 q 189 667 173 661 q 333 645 271 667 q 439 585 396 623 q 463 553 455 569 q 472 520 472 537 m 1264 960 q 1245 963 1253 960 q 1231 971 1237 965 q 1209 995 1220 982 q 1188 1025 1199 1009 q 1144 1066 1171 1047 q 1085 1106 1117 1085 q 1079 1117 1079 1112 q 1090 1123 1079 1123 q 1247 1063 1204 1101 q 1291 987 1291 1025 q 1285 965 1291 971 q 1264 960 1280 960 m 1128 884 q 1120 854 1128 862 q 1096 846 1112 846 q 1068 865 1085 846 q 1025 922 1052 884 q 987 963 1014 938 q 916 1025 960 987 q 914 1033 911 1030 q 922 1041 916 1036 q 1058 982 987 1025 q 1128 884 1128 938 "},"ワ":{"x_min":233.3125,"x_max":1171.96875,"ha":1389,"o":"m 1041 976 q 1101 935 1074 954 q 1150 900 1128 916 q 1166 884 1161 889 q 1171 873 1171 878 q 1166 862 1171 868 q 1150 857 1161 857 q 1117 843 1128 851 q 1106 830 1106 835 q 859 292 1052 499 q 341 0 667 86 q 322 5 325 0 q 330 21 320 10 q 824 358 651 146 q 1025 873 998 569 q 1022 884 1025 878 q 1009 889 1020 889 q 724 868 862 878 q 450 846 585 857 q 428 849 439 846 q 406 862 417 851 q 406 713 406 813 q 412 466 406 613 q 406 420 412 434 q 390 406 401 406 q 374 412 385 406 q 352 434 363 417 q 333 461 341 450 q 325 482 325 472 q 328 501 325 488 q 336 542 330 515 l 336 808 q 330 862 336 841 q 309 900 325 884 q 282 916 298 911 q 244 927 265 922 q 233 938 233 933 q 244 949 233 944 q 344 935 303 949 q 412 889 385 922 q 708 911 558 900 q 1009 938 857 922 q 1028 954 1020 944 q 1041 976 1036 965 "},"ポ":{"x_min":150.375,"x_max":1302.1875,"ha":1389,"o":"m 1215 211 q 1201 157 1215 173 q 1166 141 1188 141 q 1144 162 1155 141 q 1117 233 1133 184 q 1055 358 1101 282 q 889 531 1009 434 q 887 539 884 537 q 900 548 889 542 q 1139 363 1063 461 q 1215 211 1215 265 m 238 141 q 217 122 227 130 q 195 113 206 113 q 170 127 179 113 q 157 168 162 141 q 165 195 157 179 q 189 222 173 211 q 311 358 255 271 q 412 553 368 444 q 431 569 417 569 q 439 553 444 569 q 347 298 406 412 q 238 141 287 184 m 732 710 q 735 352 732 488 q 737 162 737 217 q 729 70 743 108 q 683 10 716 32 q 653 -10 667 -5 q 629 -16 640 -16 q 618 -8 623 -16 q 613 16 613 0 q 607 46 613 32 q 585 75 602 59 q 499 154 537 119 q 428 217 461 189 q 425 230 423 227 q 444 233 428 233 q 537 173 493 200 q 618 119 580 146 q 653 108 640 103 q 667 141 667 113 l 667 710 q 553 699 613 705 q 434 689 493 694 q 355 672 385 678 q 309 661 325 667 q 295 653 303 656 q 271 651 287 651 q 246 659 260 651 q 211 683 233 667 q 160 740 173 716 q 151 781 146 765 q 157 794 151 792 q 173 786 162 797 q 217 746 189 759 q 287 732 244 732 q 436 735 341 732 q 667 748 531 737 l 667 900 q 645 960 667 933 q 580 1003 623 987 q 569 1014 569 1009 q 580 1025 569 1020 q 623 1022 607 1025 q 651 1020 640 1020 q 740 987 710 1003 q 770 954 770 971 q 765 938 770 944 q 748 933 759 933 q 737 922 743 933 q 732 889 732 911 l 732 748 q 854 756 792 754 q 982 765 916 759 q 1068 775 1036 765 q 1117 803 1101 786 q 1169 781 1144 792 q 1209 754 1193 770 q 1231 732 1226 743 q 1237 710 1237 721 q 1228 699 1237 699 q 1204 705 1220 699 q 1025 713 1144 710 q 732 710 906 716 m 1030 982 q 1071 1077 1030 1036 q 1166 1117 1112 1117 q 1261 1077 1220 1117 q 1302 982 1302 1036 q 1261 887 1302 927 q 1166 846 1220 846 q 1071 887 1112 846 q 1030 982 1030 927 m 1063 982 q 1093 908 1063 938 q 1166 878 1123 878 q 1239 908 1209 878 q 1269 982 1269 938 q 1239 1055 1269 1025 q 1166 1085 1209 1085 q 1093 1055 1123 1085 q 1063 982 1063 1025 "},"ツ":{"x_min":175.796875,"x_max":1220.796875,"ha":1389,"o":"m 1063 830 q 1066 892 1079 868 q 1014 927 1052 916 q 1003 938 1003 933 q 1014 949 1003 944 q 1063 944 1036 954 q 1128 911 1090 933 q 1199 857 1177 878 q 1220 824 1220 835 q 1212 808 1220 813 q 1188 803 1204 803 q 1158 792 1171 803 q 1133 765 1144 781 q 784 271 998 461 q 276 5 569 81 q 263 13 265 5 q 271 32 260 21 q 751 328 553 130 q 1063 830 949 526 m 694 694 q 664 710 678 694 q 645 765 651 727 q 629 822 640 792 q 596 878 618 851 q 556 930 575 906 q 515 971 537 954 q 507 984 504 982 q 526 987 510 987 q 596 949 564 971 q 656 906 629 927 q 721 827 699 868 q 743 748 743 786 q 732 708 743 721 q 694 694 721 694 m 379 596 q 352 610 363 596 q 330 656 341 623 q 309 716 325 683 q 271 781 293 748 q 233 827 255 803 q 184 873 211 851 q 176 889 173 884 q 189 895 179 895 q 265 854 233 873 q 320 819 298 835 q 401 729 374 770 q 428 656 428 689 q 417 610 428 623 q 379 596 406 596 "},"ナ":{"x_min":103.09375,"x_max":1302.1875,"ha":1389,"o":"m 379 -48 q 366 -46 368 -48 q 368 -32 363 -43 q 623 265 542 86 q 694 678 705 444 q 371 640 482 656 q 249 607 260 623 q 238 594 244 596 q 222 591 233 591 q 208 594 217 591 q 189 607 200 596 q 124 678 146 645 q 103 737 103 710 q 113 756 108 754 q 124 748 119 759 q 162 702 141 716 q 211 689 184 689 q 396 697 276 689 q 694 721 515 705 l 694 954 q 672 1003 694 982 q 602 1036 651 1025 q 591 1044 591 1041 q 602 1052 591 1047 q 659 1055 629 1058 q 721 1041 689 1052 q 792 1009 770 1025 q 808 976 813 992 q 805 963 808 965 q 792 960 803 960 q 775 941 781 954 q 770 906 770 927 l 770 727 q 1041 740 944 727 q 1155 781 1139 754 q 1199 765 1177 775 q 1242 743 1220 754 q 1288 710 1275 727 q 1302 678 1302 694 q 1291 667 1302 667 q 1253 672 1280 667 q 1033 686 1155 683 q 770 683 911 689 q 683 238 781 423 q 379 -48 585 54 "},"ヮ":{"x_min":314.703125,"x_max":1120.8125,"ha":1389,"o":"m 976 602 q 976 618 982 613 q 960 623 971 623 q 705 602 830 613 q 455 580 580 591 l 455 282 q 450 260 455 265 q 434 255 444 255 q 420 263 428 255 q 401 287 412 271 q 390 322 390 303 q 396 368 390 341 q 396 450 396 406 q 396 537 396 493 q 393 594 396 569 q 379 634 390 618 q 360 653 374 645 q 325 667 347 661 q 314 670 314 667 q 325 683 314 672 q 409 670 374 683 q 461 623 444 656 q 721 645 591 634 q 976 667 851 656 q 992 683 987 672 q 1003 705 998 694 l 1106 623 q 1120 594 1123 602 q 1090 591 1117 585 q 1066 583 1074 591 q 1052 558 1058 575 q 824 154 982 320 q 428 -97 667 -10 q 417 -89 417 -97 q 428 -70 417 -81 q 784 200 645 32 q 976 602 922 368 "},"ヒ":{"x_min":282.140625,"x_max":1063.453125,"ha":1389,"o":"m 450 569 q 697 634 585 596 q 889 716 808 672 q 897 743 906 727 q 857 775 889 759 q 854 784 851 781 q 868 792 857 786 q 933 773 900 786 q 992 737 965 759 q 1033 699 1020 716 q 1047 678 1047 683 q 1039 664 1047 667 q 1009 667 1030 661 q 965 656 987 661 q 922 645 944 651 q 683 575 803 602 q 450 531 564 548 l 450 217 q 472 151 450 173 q 537 130 493 130 l 765 130 q 849 138 808 130 q 927 157 889 146 q 963 173 949 168 q 982 179 976 179 q 1020 160 1003 168 q 1041 146 1036 151 q 1058 124 1052 135 q 1063 108 1063 113 q 1058 97 1063 103 q 1036 92 1052 92 q 984 84 1014 86 q 922 81 954 81 q 857 73 895 75 q 770 70 819 70 l 526 70 q 420 103 455 70 q 385 206 385 135 l 385 846 q 363 889 385 873 q 298 916 341 906 q 282 927 282 922 q 298 944 282 933 q 344 941 320 944 q 396 933 368 938 q 450 911 428 922 q 488 884 472 900 q 501 868 499 873 q 504 857 504 862 q 499 846 504 851 q 482 841 493 841 q 463 816 472 835 q 450 765 455 797 l 450 569 "},"テ":{"x_min":103.09375,"x_max":1237.078125,"ha":1389,"o":"m 406 873 q 396 859 401 862 q 379 857 390 857 q 358 865 374 857 q 320 895 341 873 q 282 941 298 916 q 260 992 265 965 q 265 1006 260 1003 q 282 998 271 1009 q 330 952 303 965 q 390 944 358 938 q 626 960 510 949 q 862 987 743 971 q 900 995 884 987 q 933 1020 916 1003 q 976 1006 954 1014 q 1020 987 998 998 q 1060 960 1047 971 q 1074 944 1074 949 q 1058 930 1074 933 q 1009 933 1041 927 q 851 935 982 944 q 482 906 721 927 q 436 887 455 895 q 406 873 417 878 m 352 613 q 295 602 320 607 q 260 591 271 596 q 249 577 255 580 q 233 575 244 575 q 217 577 227 575 q 195 591 206 580 q 130 653 151 623 q 103 710 108 683 q 111 724 108 721 q 119 721 113 727 q 160 680 130 694 q 233 667 189 667 q 466 675 276 661 q 992 716 656 689 q 1058 724 1030 716 q 1101 748 1085 732 q 1144 729 1123 737 q 1182 710 1166 721 q 1223 686 1209 699 q 1237 661 1237 672 q 1218 642 1237 645 q 1155 651 1199 640 q 971 659 1079 656 q 716 661 862 661 q 805 599 775 623 q 835 564 835 575 q 832 550 835 553 q 819 548 830 548 q 794 542 803 548 q 781 526 786 537 q 591 195 710 336 q 309 -37 472 54 q 287 -37 293 -43 q 287 -21 282 -32 q 561 249 455 103 q 705 564 667 396 q 710 594 710 580 q 705 618 710 607 q 694 640 705 629 q 667 656 683 651 q 491 634 569 645 q 352 613 412 623 "},"グ":{"x_min":207.984375,"x_max":1318.46875,"ha":1389,"o":"m 651 824 q 770 827 699 824 q 938 841 841 830 q 963 857 949 846 q 987 884 976 868 q 1033 854 1014 868 q 1068 830 1052 841 q 1090 808 1085 819 q 1096 792 1096 797 q 1087 778 1096 781 q 1063 775 1079 775 q 1036 770 1047 775 q 1020 748 1025 765 q 713 268 906 466 q 244 -43 520 70 q 225 -37 227 -43 q 233 -21 222 -32 q 683 330 504 124 q 944 797 862 537 q 778 789 857 792 q 629 786 699 786 q 472 575 575 672 q 222 396 368 477 q 208 401 211 396 q 211 417 206 406 q 453 640 358 520 q 596 889 548 759 q 610 938 607 916 q 607 971 613 960 q 591 990 602 982 q 558 1003 580 998 q 548 1014 548 1009 q 558 1025 548 1020 q 602 1022 575 1030 q 667 992 629 1014 q 713 963 699 976 q 727 938 727 949 q 721 925 727 927 q 699 922 716 922 q 691 916 694 922 q 683 900 689 911 q 670 859 678 878 q 651 824 661 841 m 1291 960 q 1272 963 1280 960 q 1258 971 1264 965 q 1237 995 1247 982 q 1215 1025 1226 1009 q 1171 1066 1199 1047 q 1112 1106 1144 1085 q 1106 1117 1106 1112 q 1117 1123 1106 1123 q 1277 1060 1237 1096 q 1318 987 1318 1025 q 1313 965 1318 971 q 1291 960 1307 960 m 1199 873 q 1190 843 1199 851 q 1166 835 1182 835 q 1139 854 1155 835 q 1096 911 1123 873 q 1058 952 1085 927 q 987 1014 1030 976 q 984 1022 982 1020 q 992 1030 987 1025 q 1128 971 1058 1014 q 1199 873 1199 927 "},"ュ":{"x_min":206.1875,"x_max":1161.125,"ha":1389,"o":"m 336 92 q 322 70 330 75 q 303 65 314 65 q 284 73 298 65 q 255 97 271 81 q 225 132 238 113 q 206 173 211 151 q 208 195 206 189 q 222 189 211 200 q 257 165 233 173 q 314 157 282 157 q 455 165 341 157 q 770 189 569 173 q 808 339 792 260 q 841 504 824 417 q 607 482 699 493 q 472 466 515 472 q 442 450 455 455 q 423 444 428 444 q 404 453 417 444 q 368 482 390 461 q 341 515 352 499 q 325 548 330 531 q 330 561 325 558 q 347 553 336 564 q 379 531 358 537 q 434 526 401 526 q 564 529 466 526 q 824 542 661 531 q 849 564 841 553 q 862 585 857 575 q 908 561 889 575 q 938 537 927 548 q 954 515 949 526 q 960 499 960 504 q 949 482 960 488 q 911 477 938 477 q 873 328 895 401 q 830 189 851 255 q 908 187 868 184 q 987 195 949 189 q 1020 203 1003 195 q 1052 222 1036 211 q 1093 200 1074 211 q 1128 179 1112 189 q 1152 151 1144 162 q 1161 130 1161 141 q 1147 119 1161 119 q 1101 130 1133 119 q 716 138 906 146 q 336 92 526 130 "},"メ":{"x_min":184.484375,"x_max":1030.90625,"ha":1389,"o":"m 195 -54 q 184 -46 184 -54 q 189 -27 184 -37 q 480 211 347 75 q 721 515 613 347 q 575 588 661 553 q 368 656 488 623 q 363 664 363 661 q 374 672 363 667 q 556 645 461 672 q 754 569 651 618 q 841 724 803 645 q 900 878 878 803 q 897 941 911 916 q 841 982 884 965 q 827 992 830 987 q 835 1003 824 998 q 897 995 868 1003 q 949 971 927 987 q 1011 914 992 938 q 1030 873 1030 889 q 1025 857 1030 862 q 1003 851 1020 851 q 992 846 998 851 q 982 835 987 841 q 903 667 944 743 q 819 531 862 591 q 919 458 878 493 q 982 396 960 423 q 1011 349 1003 368 q 1020 320 1020 330 q 1014 287 1020 298 q 992 276 1009 276 q 957 290 976 276 q 922 330 938 303 q 870 393 906 358 q 781 472 835 428 q 510 160 656 293 q 195 -54 363 27 "},"ゥ":{"x_min":341.828125,"x_max":1128.5625,"ha":1389,"o":"m 417 352 l 417 499 q 404 575 417 553 q 358 607 390 596 q 341 621 341 613 q 358 634 341 629 q 420 623 390 634 q 477 585 450 613 q 591 596 537 591 q 689 607 645 602 q 689 667 689 634 q 689 732 689 699 q 678 784 689 765 q 640 813 667 803 q 621 830 618 824 q 645 841 623 835 q 697 835 672 841 q 743 819 721 830 q 773 800 765 808 q 781 786 781 792 q 767 767 781 770 q 754 748 754 765 q 754 680 754 716 q 754 613 754 645 q 868 615 808 613 q 998 618 927 618 q 1020 632 1009 623 q 1036 651 1030 640 l 1112 580 q 1125 564 1123 569 q 1128 553 1128 558 q 1123 545 1128 548 q 1101 542 1117 542 q 1074 534 1085 542 q 1058 515 1063 526 q 808 105 960 271 q 450 -151 656 -59 q 434 -151 439 -157 q 434 -135 428 -146 q 786 173 645 -5 q 998 580 927 352 q 724 569 857 580 q 472 542 591 558 l 472 363 q 485 274 482 309 q 482 227 488 238 q 480 211 482 217 q 466 206 477 206 q 458 211 466 206 q 434 233 450 217 q 417 274 423 244 q 417 352 412 303 "},"ネ":{"x_min":72.703125,"x_max":1231.65625,"ha":1389,"o":"m 683 553 q 672 572 683 564 q 640 585 661 580 q 626 596 623 591 q 645 607 629 602 q 699 602 678 607 q 732 585 721 596 q 859 683 803 634 q 965 786 916 732 q 968 797 971 792 q 949 803 965 803 q 651 751 759 770 q 515 727 542 732 q 461 708 482 716 q 428 694 439 699 q 417 680 423 683 q 401 678 412 678 q 368 691 390 678 q 314 737 347 705 q 292 767 303 748 q 276 813 282 786 q 282 827 276 824 q 298 824 287 830 q 341 784 314 797 q 412 770 368 770 q 488 775 439 770 q 602 797 537 781 q 762 816 667 803 q 987 851 857 830 q 1009 868 998 857 q 1025 889 1020 878 l 1101 830 q 1131 803 1123 813 q 1139 786 1139 792 q 1133 765 1139 770 q 1112 765 1128 759 q 1074 759 1090 765 q 1041 743 1058 754 q 914 632 976 683 q 792 542 851 580 q 808 520 813 531 q 765 504 803 510 l 765 65 q 767 -8 765 27 q 775 -75 770 -43 q 773 -100 781 -92 q 743 -108 765 -108 q 721 -103 732 -108 q 699 -81 710 -97 q 683 -54 689 -65 q 678 -37 678 -43 q 689 -8 683 -27 q 694 32 694 10 l 694 482 q 379 301 531 374 q 86 184 227 227 q 73 189 75 184 q 81 206 70 195 q 393 358 244 271 q 683 553 542 444 m 564 1133 q 737 1055 667 1106 q 808 944 808 1003 q 800 887 808 906 q 770 868 792 868 q 740 887 754 868 q 716 949 727 906 q 699 982 716 960 q 656 1036 683 1003 q 618 1071 645 1052 q 548 1117 591 1090 q 545 1128 542 1123 q 564 1133 548 1133 m 846 482 q 1133 377 1036 450 q 1231 244 1231 303 q 1220 211 1231 222 q 1188 200 1209 200 q 1169 214 1182 200 q 1133 255 1155 227 q 1025 360 1096 309 q 846 466 954 412 q 835 474 835 472 q 846 482 835 477 "},"ビ":{"x_min":282.140625,"x_max":1329.3125,"ha":1389,"o":"m 450 569 q 697 634 585 596 q 889 716 808 672 q 897 743 906 727 q 857 775 889 759 q 854 784 851 781 q 868 792 857 786 q 933 773 900 786 q 992 737 965 759 q 1033 699 1020 716 q 1047 678 1047 683 q 1039 664 1047 667 q 1009 667 1030 661 q 965 656 987 661 q 922 645 944 651 q 683 575 803 602 q 450 531 564 548 l 450 217 q 472 151 450 173 q 537 130 493 130 l 765 130 q 849 138 808 130 q 927 157 889 146 q 963 173 949 168 q 982 179 976 179 q 1020 160 1003 168 q 1041 146 1036 151 q 1058 124 1052 135 q 1063 108 1063 113 q 1058 97 1063 103 q 1036 92 1052 92 q 984 84 1014 86 q 922 81 954 81 q 857 73 895 75 q 770 70 819 70 l 526 70 q 420 103 455 70 q 385 206 385 135 l 385 846 q 363 889 385 873 q 298 916 341 906 q 282 927 282 922 q 298 944 282 933 q 344 941 320 944 q 396 933 368 938 q 450 911 428 922 q 488 884 472 900 q 501 868 499 873 q 504 857 504 862 q 499 846 504 851 q 482 841 493 841 q 463 816 472 835 q 450 765 455 797 l 450 569 m 1302 873 q 1280 881 1291 873 q 1258 906 1269 889 q 1212 960 1247 933 q 1117 1014 1177 987 q 1112 1025 1112 1020 q 1123 1030 1112 1030 q 1285 982 1242 1009 q 1329 906 1329 954 q 1323 881 1329 889 q 1302 873 1318 873 m 1188 786 q 1180 756 1188 765 q 1155 748 1171 748 q 1128 767 1144 748 q 1085 824 1112 786 q 1047 865 1074 841 q 976 927 1020 889 q 973 935 971 933 q 982 944 976 938 q 1117 884 1047 927 q 1188 786 1188 841 "},"ゴ":{"x_min":249.59375,"x_max":1345.59375,"ha":1389,"o":"m 1112 282 q 1125 268 1123 276 q 1128 249 1128 260 q 1120 236 1128 238 q 1096 238 1112 233 q 881 257 1030 260 q 499 227 732 255 q 423 211 450 217 q 385 200 396 206 q 371 187 379 189 q 352 184 363 184 q 339 189 347 184 q 314 211 330 195 q 265 274 282 244 q 249 325 249 303 q 255 339 249 336 q 271 330 260 341 q 311 290 287 303 q 368 276 336 276 q 472 276 428 276 q 537 282 515 276 q 732 295 623 287 q 965 314 841 303 q 995 512 982 412 q 1020 721 1009 613 q 724 697 846 705 q 531 683 602 689 q 477 678 504 683 q 428 667 450 672 q 409 651 417 656 q 396 645 401 645 q 379 651 390 645 q 352 667 368 656 q 295 729 314 699 q 276 781 276 759 q 282 794 276 792 q 298 786 287 797 q 347 748 325 759 q 385 737 368 737 q 463 737 423 737 q 548 743 504 737 q 743 754 629 748 q 1003 765 857 759 q 1022 781 1014 770 q 1041 803 1030 792 q 1093 773 1068 786 q 1133 748 1117 759 q 1147 735 1144 743 q 1150 721 1150 727 q 1144 710 1150 716 q 1123 705 1139 705 q 1104 694 1112 699 q 1090 683 1096 689 q 1058 504 1074 591 q 1025 330 1041 417 q 1074 309 1052 320 q 1112 282 1096 298 m 1318 933 q 1299 935 1307 933 q 1285 944 1291 938 q 1264 968 1275 954 q 1242 998 1253 982 q 1199 1039 1226 1020 q 1139 1079 1171 1058 q 1133 1090 1133 1085 q 1144 1096 1133 1096 q 1302 1036 1258 1074 q 1345 960 1345 998 q 1340 938 1345 944 q 1318 933 1334 933 m 1204 851 q 1196 822 1204 830 q 1171 813 1188 813 q 1144 832 1161 813 q 1101 889 1128 851 q 1063 930 1090 906 q 992 992 1036 954 q 990 1001 987 998 q 998 1009 992 1003 q 1133 949 1063 992 q 1204 851 1204 906 "},"ガ":{"x_min":126.59375,"x_max":1318.46875,"ha":1389,"o":"m 1036 743 q 870 724 954 732 q 699 710 786 716 q 520 263 661 450 q 141 -37 379 75 q 127 -32 130 -37 q 130 -16 124 -27 q 466 292 341 113 q 629 705 591 472 q 442 675 510 689 q 358 651 374 661 q 347 637 352 640 q 330 634 341 634 q 303 645 320 634 q 260 683 287 656 q 222 732 233 710 q 211 775 211 754 q 217 789 211 786 q 233 781 222 792 q 276 740 249 754 q 336 727 303 727 q 485 732 412 727 q 634 748 558 737 q 651 832 645 792 q 656 916 656 873 q 656 954 661 938 q 640 987 651 971 q 621 1006 634 998 q 585 1020 607 1014 q 575 1030 575 1025 q 585 1041 575 1036 q 683 1025 640 1041 q 765 982 727 1009 q 781 963 775 971 q 786 949 786 954 q 781 938 786 944 q 765 933 775 933 q 751 927 759 933 q 737 911 743 922 q 724 841 732 878 q 705 754 716 803 q 846 765 775 759 q 987 781 916 770 q 1022 800 1009 786 q 1047 830 1036 813 q 1101 792 1079 808 q 1139 765 1123 775 q 1161 746 1155 754 q 1166 732 1166 737 q 1163 721 1166 727 q 1150 716 1161 716 q 1131 705 1139 710 q 1112 689 1123 699 q 1063 415 1090 531 q 1003 222 1036 298 q 906 78 971 124 q 803 32 841 32 q 773 48 781 32 q 765 81 765 65 q 754 111 765 92 q 721 151 743 130 q 675 198 699 173 q 623 249 651 222 q 621 268 618 265 q 640 265 623 271 q 713 214 678 238 q 781 168 748 189 q 811 151 797 157 q 830 146 824 146 q 851 151 841 146 q 873 168 862 157 q 979 382 938 238 q 1036 743 1020 526 m 1291 938 q 1272 941 1280 938 q 1258 949 1264 944 q 1237 973 1247 960 q 1215 1003 1226 987 q 1171 1044 1199 1025 q 1112 1085 1144 1063 q 1106 1096 1106 1090 q 1117 1101 1106 1101 q 1277 1041 1237 1079 q 1318 965 1318 1003 q 1313 944 1318 949 q 1291 938 1307 938 m 1215 841 q 1207 811 1215 819 q 1182 803 1199 803 q 1155 822 1171 803 q 1112 878 1139 841 q 1074 919 1101 895 q 1003 982 1047 944 q 1001 990 998 987 q 1009 998 1003 992 q 1144 938 1074 982 q 1215 841 1215 895 "},"ル":{"x_min":51.546875,"x_max":1353.734375,"ha":1389,"o":"m 651 195 q 661 206 651 200 q 694 217 672 211 l 694 797 q 689 838 694 819 q 672 873 683 857 q 651 887 667 878 q 607 900 634 895 q 594 914 596 906 q 602 927 591 922 q 697 916 656 927 q 770 889 737 906 q 794 868 786 878 q 803 851 803 857 q 792 830 803 841 q 759 808 781 819 l 759 238 q 1066 406 922 309 q 1329 634 1209 504 q 1351 634 1345 640 q 1351 618 1356 629 q 1166 417 1275 515 q 916 233 1058 320 q 808 165 846 189 q 770 130 770 141 q 767 108 770 113 q 754 103 765 103 q 735 111 748 103 q 705 135 721 119 q 664 176 678 162 q 651 195 651 189 m 70 21 q 54 21 59 16 q 54 37 48 27 q 274 325 189 168 q 396 667 358 482 q 398 713 401 694 q 390 737 396 732 q 371 748 385 743 q 341 759 358 754 q 330 770 330 765 q 341 781 330 775 q 425 770 385 781 q 499 737 466 759 q 523 716 515 727 q 531 694 531 705 q 520 680 531 683 q 488 678 510 678 q 333 309 439 472 q 70 21 227 146 "},"ウ":{"x_min":273.703125,"x_max":1199.09375,"ha":1389,"o":"m 417 -113 q 396 -113 401 -119 q 401 -92 390 -108 q 819 260 656 54 q 1052 737 982 466 q 1060 762 1063 754 q 1041 775 1058 770 q 724 754 884 765 q 406 727 564 743 q 406 526 406 645 q 406 406 406 406 q 409 336 412 358 q 390 314 406 314 q 371 320 379 314 q 352 336 363 325 q 333 371 336 347 q 336 439 330 396 l 336 694 q 328 767 336 737 q 293 803 320 797 q 274 816 271 808 q 309 830 276 824 q 360 816 336 830 q 406 781 385 803 q 548 792 477 786 q 683 803 618 797 l 683 960 q 672 1011 683 992 q 618 1041 661 1030 q 594 1049 596 1041 q 607 1068 591 1058 q 699 1066 656 1074 q 781 1036 743 1058 q 794 1022 792 1030 q 797 1009 797 1014 q 792 998 797 1003 q 770 992 786 992 q 754 971 759 987 q 748 927 748 954 l 748 808 q 897 811 824 808 q 1041 819 971 813 q 1066 832 1052 824 q 1090 857 1079 841 q 1136 816 1117 835 q 1171 781 1155 797 q 1193 759 1188 770 q 1199 743 1199 748 q 1190 735 1199 737 q 1161 737 1182 732 q 1147 732 1155 737 q 1133 716 1139 727 q 868 217 1047 423 q 417 -113 689 10 "},"ク":{"x_min":207.984375,"x_max":1096.015625,"ha":1389,"o":"m 651 824 q 770 827 699 824 q 938 841 841 830 q 963 857 949 846 q 987 884 976 868 q 1033 854 1014 868 q 1068 830 1052 841 q 1090 808 1085 819 q 1096 792 1096 797 q 1087 778 1096 781 q 1063 775 1079 775 q 1036 770 1047 775 q 1020 748 1025 765 q 713 268 906 466 q 244 -43 520 70 q 225 -37 227 -43 q 233 -21 222 -32 q 683 330 504 124 q 944 797 862 537 q 778 789 857 792 q 629 786 699 786 q 472 575 575 672 q 222 396 368 477 q 208 401 211 396 q 211 417 206 406 q 453 640 358 520 q 596 889 548 759 q 610 938 607 916 q 607 971 613 960 q 591 990 602 982 q 558 1003 580 998 q 548 1014 548 1009 q 558 1025 548 1020 q 602 1022 575 1030 q 667 992 629 1014 q 713 963 699 976 q 727 938 727 949 q 721 925 727 927 q 699 922 716 922 q 691 916 694 922 q 683 900 689 911 q 670 859 678 878 q 651 824 661 841 "},"ア":{"x_min":146.5,"x_max":1231.65625,"ha":1389,"o":"m 314 900 q 442 906 379 900 q 558 922 504 911 q 830 946 705 938 q 1058 954 954 954 q 1101 976 1085 965 q 1128 998 1117 987 l 1182 944 q 1220 900 1209 916 q 1231 878 1231 884 q 1226 865 1231 868 q 1204 862 1220 862 q 1188 862 1199 862 q 1161 868 1177 862 q 992 765 1101 830 q 727 613 884 699 q 591 244 699 401 q 298 -16 482 86 q 274 -18 282 -21 q 271 0 265 -16 q 531 263 439 113 q 640 602 623 412 q 637 689 651 656 q 591 732 623 721 q 572 743 575 737 q 580 754 569 748 q 651 746 618 754 q 710 716 683 737 q 732 691 727 705 q 732 661 737 678 q 927 786 841 721 q 1085 922 1014 851 q 775 897 916 911 q 520 868 634 884 q 374 838 428 851 q 309 819 320 824 q 287 805 298 808 q 265 803 276 803 q 200 846 255 803 q 146 933 146 889 q 154 952 146 949 q 173 949 162 954 q 225 908 189 922 q 314 900 260 895 "},"ン":{"x_min":226.53125,"x_max":1304,"ha":1389,"o":"m 347 151 q 713 344 412 151 q 1275 797 1014 537 q 1302 797 1296 803 q 1296 775 1307 792 q 889 390 1112 564 q 412 75 667 217 q 409 56 412 65 q 401 43 406 48 q 396 35 401 37 q 379 32 390 32 q 347 46 368 32 q 293 92 325 59 q 238 160 255 124 q 227 233 222 195 q 233 246 227 244 q 249 244 238 249 q 295 173 271 195 q 347 151 320 151 m 450 656 q 423 672 434 656 q 401 727 412 689 q 379 775 396 748 q 330 835 363 803 q 293 870 314 851 q 238 911 271 889 q 230 927 227 922 q 249 927 233 933 q 450 819 396 884 q 504 710 504 754 q 491 670 504 683 q 450 656 477 656 "}}}
